<svg xmlns="http://www.w3.org/2000/svg" viewBox="0 0 70 70">
    <defs>
        <style>.cls-1{fill:#e23038;}.cls-2{fill:none;}</style>
    </defs>
    <g id="Capa_2" data-name="Capa 2">
        <g id="Capa_1-2" data-name="Capa 1">
            <path class="cls-1"
                d="M51.56,15.26H6.92v32.9h6.69a6.58,6.58,0,1,0,13.16,0H43.34a6.58,6.58,0,0,0,13.16,0h6.58V26.77A11.53,11.53,0,0,0,51.56,15.26ZM10.21,18.55H51.56a8.21,8.21,0,0,1,6.58,3.29H10.21Zm36.42,6.58v6.58h-10V25.13Zm-13.28,0v6.58H23.48V25.13Zm-23.14,0h10v6.58h-10Zm10,26.32a3.29,3.29,0,1,1,3.29-3.29A3.29,3.29,0,0,1,20.19,51.45Zm29.73,0a3.29,3.29,0,1,1,3.29-3.29A3.29,3.29,0,0,1,49.92,51.45Zm9.87-6.58H55.61a6.57,6.57,0,0,0-11.39,0H25.89a6.57,6.57,0,0,0-11.39,0H10.21V35H47.88l11.91,6Zm0-7.6-9.87-4.93V25.13h9.7a8.07,8.07,0,0,1,.17,1.64Z"></path>
            <rect class="cls-2" width="70" height="70"></rect>
        </g>
    </g>
</svg>