<?xml version="1.0" encoding="UTF-8"?><svg id="a" xmlns="http://www.w3.org/2000/svg" viewBox="0 0 595.28 595.28"><defs><style>.b,.c{fill:#fff;}.d{fill:#3362ac;}.c{stroke:#3362ac;stroke-miterlimit:10;stroke-width:9px;}</style></defs><g><rect class="d" x="301.98" y="76.41" width="9" height="442.45"/><g><circle class="b" cx="306" cy="76.41" r="15.91"/><path class="d" d="M306,96.83c-11.25,0-20.41-9.16-20.41-20.41s9.16-20.41,20.41-20.41,20.41,9.16,20.41,20.41-9.16,20.41-20.41,20.41Zm0-31.82c-6.29,0-11.41,5.12-11.41,11.41s5.12,11.41,11.41,11.41,11.41-5.12,11.41-11.41-5.12-11.41-11.41-11.41Z"/></g><g><circle class="b" cx="305.52" cy="518.86" r="15.91"/><path class="d" d="M305.52,539.27c-11.25,0-20.41-9.16-20.41-20.41s9.16-20.41,20.41-20.41,20.41,9.16,20.41,20.41-9.16,20.41-20.41,20.41Zm0-31.82c-6.29,0-11.41,5.12-11.41,11.41s5.12,11.41,11.41,11.41,11.41-5.12,11.41-11.41-5.12-11.41-11.41-11.41Z"/></g></g><g><rect class="d" x="84.54" y="292.41" width="442.45" height="9"/><g><circle class="b" cx="84.54" cy="297.4" r="15.91"/><path class="d" d="M84.54,317.81c-11.25,0-20.41-9.16-20.41-20.41s9.16-20.41,20.41-20.41,20.41,9.16,20.41,20.41-9.16,20.41-20.41,20.41Zm0-31.82c-6.29,0-11.41,5.12-11.41,11.41s5.12,11.41,11.41,11.41,11.41-5.12,11.41-11.41-5.12-11.41-11.41-11.41Z"/></g><g><circle class="b" cx="526.98" cy="297.88" r="15.91"/><path class="d" d="M526.98,318.29c-11.25,0-20.41-9.16-20.41-20.41s9.16-20.41,20.41-20.41,20.41,9.16,20.41,20.41-9.16,20.41-20.41,20.41Zm0-31.82c-6.29,0-11.41,5.12-11.41,11.41s5.12,11.41,11.41,11.41,11.41-5.12,11.41-11.41-5.12-11.41-11.41-11.41Z"/></g></g><g><polygon class="d" points="442.21 261.48 308.03 261.48 308.03 252.48 438.06 252.48 480.96 202.29 480.96 156.7 489.96 156.7 489.96 205.61 442.21 261.48"/><g><circle class="b" cx="485.46" cy="156.7" r="15.91"/><path class="d" d="M485.46,177.11c-11.25,0-20.41-9.16-20.41-20.41s9.16-20.41,20.41-20.41,20.41,9.16,20.41,20.41-9.16,20.41-20.41,20.41Zm0-31.82c-6.29,0-11.41,5.12-11.41,11.41s5.12,11.41,11.41,11.41,11.41-5.12,11.41-11.41-5.12-11.41-11.41-11.41Z"/></g></g><g><rect class="d" x="392.24" y="106.39" width="9" height="148.34"/><g><circle class="b" cx="396.74" cy="106.39" r="15.91"/><path class="d" d="M396.74,126.8c-11.25,0-20.41-9.16-20.41-20.41s9.16-20.41,20.41-20.41,20.41,9.16,20.41,20.41-9.16,20.41-20.41,20.41Zm0-31.82c-6.29,0-11.41,5.12-11.41,11.41s5.12,11.41,11.41,11.41,11.41-5.12,11.41-11.41-5.12-11.41-11.41-11.41Z"/></g></g><g><polygon class="d" points="489.96 430.71 480.96 430.71 480.96 385.12 438.06 334.92 308.03 334.92 308.03 325.92 442.21 325.92 489.96 381.8 489.96 430.71"/><g><circle class="b" cx="485.46" cy="430.71" r="15.91"/><path class="d" d="M485.46,451.12c-11.25,0-20.41-9.16-20.41-20.41s9.16-20.41,20.41-20.41,20.41,9.16,20.41,20.41-9.16,20.41-20.41,20.41Zm0-31.82c-6.29,0-11.41,5.12-11.41,11.41s5.12,11.41,11.41,11.41,11.41-5.12,11.41-11.41-5.12-11.41-11.41-11.41Z"/></g></g><g><rect class="d" x="392.24" y="332.67" width="9" height="148.34"/><g><circle class="b" cx="396.74" cy="481.01" r="15.91"/><path class="d" d="M396.74,501.42c-11.25,0-20.41-9.16-20.41-20.41s9.16-20.41,20.41-20.41,20.41,9.16,20.41,20.41-9.16,20.41-20.41,20.41Zm0-31.82c-6.29,0-11.41,5.12-11.41,11.41s5.12,11.41,11.41,11.41,11.41-5.12,11.41-11.41-5.12-11.41-11.41-11.41Z"/></g></g><g><polygon class="d" points="307.11 253.88 172.93 253.88 125.18 198.01 125.18 149.1 134.18 149.1 134.18 194.68 177.07 244.88 307.11 244.88 307.11 253.88"/><g><circle class="b" cx="129.68" cy="149.1" r="15.91"/><path class="d" d="M129.68,169.51c-11.25,0-20.41-9.16-20.41-20.41s9.16-20.41,20.41-20.41,20.41,9.16,20.41,20.41-9.16,20.41-20.41,20.41Zm0-31.82c-6.29,0-11.41,5.12-11.41,11.41s5.12,11.41,11.41,11.41,11.41-5.12,11.41-11.41-5.12-11.41-11.41-11.41Z"/></g></g><g><g><line class="d" x1="218.39" y1="247.13" x2="218.39" y2="98.79"/><rect class="d" x="213.89" y="98.79" width="9" height="148.34"/></g><g><circle class="b" cx="218.39" cy="98.79" r="15.91"/><path class="d" d="M218.39,119.2c-11.25,0-20.41-9.16-20.41-20.41s9.16-20.41,20.41-20.41,20.41,9.16,20.41,20.41-9.16,20.41-20.41,20.41Zm0-31.82c-6.29,0-11.41,5.12-11.41,11.41s5.12,11.41,11.41,11.41,11.41-5.12,11.41-11.41-5.12-11.41-11.41-11.41Z"/></g></g><g><polygon class="d" points="134.18 423.11 125.18 423.11 125.18 374.2 172.93 318.32 307.11 318.32 307.11 327.32 177.07 327.32 134.18 377.52 134.18 423.11"/><g><circle class="b" cx="129.68" cy="423.11" r="15.91"/><path class="d" d="M129.68,443.52c-11.25,0-20.41-9.16-20.41-20.41s9.16-20.41,20.41-20.41,20.41,9.16,20.41,20.41-9.16,20.41-20.41,20.41Zm0-31.82c-6.29,0-11.41,5.12-11.41,11.41s5.12,11.41,11.41,11.41,11.41-5.12,11.41-11.41-5.12-11.41-11.41-11.41Z"/></g></g><g><g><line class="d" x1="218.39" y1="325.07" x2="218.39" y2="473.41"/><rect class="d" x="213.89" y="325.07" width="9" height="148.34"/></g><g><circle class="b" cx="218.39" cy="473.41" r="15.91"/><path class="d" d="M218.39,493.82c-11.25,0-20.41-9.16-20.41-20.41s9.16-20.41,20.41-20.41,20.41,9.16,20.41,20.41-9.16,20.41-20.41,20.41Zm0-31.82c-6.29,0-11.41,5.12-11.41,11.41s5.12,11.41,11.41,11.41,11.41-5.12,11.41-11.41-5.12-11.41-11.41-11.41Z"/></g></g><g><circle class="d" cx="306" cy="297.64" r="125.04" transform="translate(-67.54 504.26) rotate(-73.15)"/><circle class="c" cx="306" cy="297.64" r="116.04" transform="translate(-50.76 63.24) rotate(-10.9)"/></g><path class="d" d="M356.23,280.67c-.38-29.93-21.31-54.14-47.01-54.14s-46.63,24.21-47.01,54.14c-3.48,2.91-5.7,7.28-5.7,12.16v42.18c0,8.73,7.1,15.84,15.84,15.84h73.75c8.73,0,15.84-7.1,15.84-15.84v-42.18c0-4.88-2.22-9.25-5.7-12.16Zm-47.01-45.14c19.73,0,35.99,18.25,37.85,41.51-.32-.02-.64-.05-.97-.05h-73.75c-.33,0-.65,.03-.97,.05,1.86-23.26,18.12-41.51,37.85-41.51Zm43.71,99.48c0,3.77-3.07,6.84-6.84,6.84h-73.75c-3.77,0-6.84-3.07-6.84-6.84v-42.18c0-3.77,3.07-6.84,6.84-6.84h73.75c3.77,0,6.84,3.07,6.84,6.84v42.18Z"/><path class="d" d="M320.97,304.53c0-6.49-5.26-11.75-11.75-11.75s-11.75,5.26-11.75,11.75c0,4.18,2.19,7.85,5.49,9.93v13.11c0,3.45,2.82,6.27,6.27,6.27s6.27-2.82,6.27-6.27v-13.11c3.29-2.08,5.49-5.75,5.49-9.93Z"/></svg>