<svg xmlns="http://www.w3.org/2000/svg" viewBox="0 0 70 70">
    <defs>
        <style>.cls-1{fill:#e23038;}.cls-2{fill:none;}</style>
    </defs>
    <g id="Capa_2" data-name="Capa 2">
        <g id="Capa_1-2" data-name="Capa 1">
            <path class="cls-1"
                d="M59.35,52.42h-2v-27H61a1.62,1.62,0,0,0,.81-3L36.61,7.83a3.25,3.25,0,0,0-3.22,0L8.22,22.34a1.62,1.62,0,0,0,.81,3H12.6V52.42H10.65A3.26,3.26,0,0,0,7.4,55.67v3.68a3.25,3.25,0,0,0,3.25,3.24h48.7a3.25,3.25,0,0,0,3.25-3.24V55.67A3.26,3.26,0,0,0,59.35,52.42ZM35,10.65,54.9,22.12H15.1ZM54.15,48.74v3.68H15.85V48.74ZM15.85,45.5V25.37h3.67V45.5Zm6.92,0V25.37h7.14V45.5Zm10.39,0V25.37h3.68V45.5Zm6.93,0V25.37h7.14V45.5Zm10.39,0V25.37h3.67V45.5Zm8.87,13.85H10.65V55.67h48.7C59.35,59.43,59.36,59.35,59.35,59.35Z"></path>
            <rect class="cls-2" width="70" height="70"></rect>
        </g>
    </g>
</svg>