<svg xmlns="http://www.w3.org/2000/svg" viewBox="0 0 70 70">
    <defs>
        <style>.cls-1{fill:#e23038;}.cls-2{fill:none;}</style>
    </defs>
    <g id="Capa_2" data-name="Capa 2">
        <g id="Capa_1-2" data-name="Capa 1">
            <path class="cls-1"
                d="M49.39,41.42l-4-.85c4.46-5.12,3.14-10.58,3.38-12.44h.57A1.72,1.72,0,0,0,51,26.41V20.68A1.73,1.73,0,0,0,49.65,19L48.1,18.7a13.75,13.75,0,0,0-7.94-8.59V7.39a1.72,1.72,0,0,0-1.72-1.72H31.56a1.72,1.72,0,0,0-1.72,1.72v2.72a13.77,13.77,0,0,0-7.95,8.59L20.36,19A1.73,1.73,0,0,0,19,20.68v5.73a1.72,1.72,0,0,0,1.72,1.72h.57c.24,1.85-1.08,7.32,3.37,12.44l-4,.84a14.34,14.34,0,0,0-11.39,14v7.18a1.72,1.72,0,0,0,1.72,1.72H59.06a1.72,1.72,0,0,0,1.72-1.72V55.43A14.32,14.32,0,0,0,49.39,41.42ZM19.53,60.89H12.66V55.43a10.94,10.94,0,0,1,6.87-10.11ZM33.28,9.11h3.44v5.27H33.28ZM22.4,24.69V22.1l1.19-.23A1.73,1.73,0,0,0,25,20.56a10.34,10.34,0,0,1,4.89-6.64V16.1a1.72,1.72,0,0,0,1.72,1.72h6.88a1.72,1.72,0,0,0,1.72-1.72V13.93a10.29,10.29,0,0,1,4.89,6.63,1.71,1.71,0,0,0,1.35,1.31l1.2.23v2.59Zm22.91,3.44v3.43a10.31,10.31,0,0,1-20.62,0V28.13ZM47,60.89H23v-7H47Zm0-10.42H23v-6l5-1a13.75,13.75,0,0,0,14,0l5,1ZM57.34,60.89H50.47V45.32a10.94,10.94,0,0,1,6.87,10.11Z"></path>
            <rect class="cls-2" width="70" height="70"></rect>
        </g>
    </g>
</svg>