<?xml version="1.0" encoding="UTF-8"?><svg id="a" xmlns="http://www.w3.org/2000/svg" viewBox="0 0 483.27 485.37"><defs><style>.b{fill:#3362ac;}.c{stroke-linejoin:round;}.c,.d{fill:none;stroke:#3362ac;stroke-linecap:round;stroke-width:7px;}.d{stroke-miterlimit:10;}</style></defs><path class="d" d="M288.91,184.92c0,32.49-22.91,58.82-55.4,58.82s-55.4-26.34-55.4-58.82"/><path class="d" d="M274.95,119.07c-9.67-8-23.43-14.5-41.43-14.5s-31.76,6.5-41.43,14.5c-9.67,8-16.26,22.78-16.1,50.75,0,0,1.04,31.16,12.86,23.08,9.32-6.37,29.89-12.8,44.68-12.8s35.36,6.43,44.68,12.8c11.82,8.08,12.86-23.08,12.86-23.08,.16-27.96-6.43-42.75-16.1-50.75Z"/><path class="d" d="M175.98,169.82s26.99-13.5,57.54-13.5,57.41,15.74,57.41,15.74"/><g><path class="b" d="M215.62,137.3v2.51c0,1.51-.11,2.58-.34,3.21-.49,1.33-1.55,2.29-3.2,2.89-1,.37-2.13,.55-3.39,.55-2.2,0-3.96-.52-5.28-1.57-.64-.51-1.09-1.11-1.33-1.79-.25-.68-.37-1.66-.37-2.94,0-.5,.02-1.32,.05-2.47,.02-.81,.03-1.34,.03-1.6,0-.57-.04-.96-.13-1.18-.09-.22-.27-.42-.56-.62-.45-.29-.68-.62-.68-.99,0-.27,.11-.5,.34-.71,.23-.21,.53-.35,.91-.42,.75-.15,1.64-.23,2.67-.23,1.13,0,2.07,.09,2.81,.26,.73,.16,1.1,.54,1.1,1.12,0,.29-.11,.52-.32,.69-.05,.04-.25,.15-.62,.32-.22,.1-.37,.27-.45,.52-.08,.25-.12,.67-.12,1.25s-.03,1.88-.08,3.86c-.03,1.18,.28,2.08,.96,2.69,.55,.51,1.25,.76,2.12,.76,.55,0,1.04-.1,1.49-.3,.44-.2,.78-.48,1.02-.83,.19-.27,.31-.56,.38-.89,.07-.33,.1-.78,.1-1.35v-2.26c-.03-1.73-.08-2.75-.15-3.05-.06-.3-.29-.53-.66-.7-.36-.16-.6-.3-.73-.43-.13-.13-.2-.29-.2-.48,0-.41,.24-.71,.73-.9s1.28-.28,2.36-.28,1.83,.09,2.31,.28c.48,.19,.71,.48,.71,.88,0,.2-.04,.35-.12,.44s-.3,.24-.65,.44c-.36,.21-.57,.43-.62,.66s-.08,1.11-.1,2.63Z"/><path class="b" d="M223.45,132.66l5.12,4.48c.48,.42,.83,.63,1.04,.63,.36,0,.53-.38,.53-1.14,0-.86-.05-1.45-.15-1.77-.1-.31-.32-.55-.65-.71-.27-.13-.46-.27-.56-.42-.11-.15-.16-.34-.16-.57,0-.58,.39-.94,1.18-1.11,.32-.07,.88-.1,1.68-.1,1.03,0,1.75,.06,2.15,.19,.63,.19,.94,.55,.94,1.09,0,.44-.26,.78-.77,1.01-.21,.09-.35,.17-.42,.24s-.14,.17-.2,.31c-.18,.45-.28,1.31-.29,2.57v3.35c0,.51,0,1.22,0,2.11,0,1.21-.06,2.07-.21,2.61-.19,.66-.52,1-1.01,1-.21,0-.4-.04-.55-.13-.15-.09-.41-.29-.77-.62l-6.09-5.45c-.42-.38-.78-.58-1.06-.58-.42,0-.63,.58-.63,1.74,0,.95,.05,1.6,.16,1.95,.11,.35,.32,.61,.65,.77,.46,.23,.69,.52,.69,.88,0,.95-1.02,1.43-3.07,1.43-.92,0-1.64-.12-2.15-.36-.51-.24-.77-.59-.77-1.03,0-.23,.05-.41,.14-.52,.1-.12,.31-.27,.65-.47,.32-.19,.52-.53,.59-1.02,.12-.88,.17-2.15,.17-3.81,0-1.77-.1-3.05-.31-3.86-.08-.29-.17-.51-.29-.66-.12-.14-.31-.28-.58-.41-.31-.15-.52-.3-.64-.44-.12-.14-.18-.32-.18-.52,0-.66,.56-1.07,1.69-1.24,.38-.05,1.05-.08,2.01-.08,.55,0,.95,.04,1.2,.13,.25,.09,.55,.28,.89,.58Z"/><path class="b" d="M247.96,139.09l1.94,4.16c.18,.38,.34,.64,.46,.75s.31,.2,.56,.24c.49,.08,.74,.33,.74,.75,0,.5-.3,.86-.9,1.08-.6,.22-1.59,.33-2.96,.33-1.55,0-2.69-.07-3.44-.2-.34-.06-.61-.19-.82-.38-.2-.19-.3-.42-.3-.68,0-.21,.05-.36,.16-.48,.11-.11,.3-.22,.59-.31,.32-.11,.48-.29,.48-.55,0-.46-.28-.73-.83-.81-.6-.08-1.43-.12-2.52-.12-.91,0-1.46,.06-1.63,.16-.11,.07-.21,.19-.29,.37-.08,.18-.12,.35-.12,.51,0,.15,.03,.25,.09,.29,.06,.04,.25,.12,.57,.22,.42,.12,.63,.37,.63,.74,0,.82-.98,1.22-2.93,1.22-1.11,0-1.92-.08-2.44-.23-.48-.14-.72-.46-.72-.94,0-.21,.05-.38,.16-.49,.11-.12,.3-.22,.57-.32,.44-.16,.78-.38,1.01-.66,.23-.28,.56-.89,.98-1.82l1.45-3.17c.53-1.16,.89-2.04,1.07-2.61,.18-.58,.28-1.15,.28-1.7,0-.59,.04-1,.11-1.23,.06-.23,.21-.45,.44-.67,.47-.48,1.08-.72,1.81-.72,.69,0,1.35,.27,1.98,.81,.88,.74,2.15,2.89,3.82,6.46Zm-7.15,1.29h2.01c.37,0,.55-.08,.55-.25,0-.23-.26-.78-.77-1.66-.23-.4-.41-.67-.53-.81-.12-.14-.25-.21-.39-.21-.25,0-.45,.23-.62,.69-.03,.06-.13,.3-.3,.73-.29,.7-.43,1.12-.43,1.25,0,.17,.16,.26,.47,.26Z"/><path class="b" d="M257.65,146.17h-1.38c-.97,.02-1.67,.04-2.12,.07-.4,.03-.68,.05-.85,.05-.42,0-.75-.11-1-.32-.24-.21-.36-.47-.36-.76,0-.19,.04-.34,.13-.45,.09-.11,.3-.28,.65-.51,.2-.14,.34-.35,.41-.64,.08-.29,.16-.92,.25-1.87,.13-1.49,.2-3.33,.2-5.52,0-.8-.05-1.33-.16-1.6s-.35-.48-.74-.65c-.45-.19-.68-.47-.68-.84,0-.3,.14-.55,.41-.74s.62-.29,1.04-.29c.23,0,.53,.01,.89,.03,.6,.03,1.25,.04,1.95,.04,.51,0,1.52-.02,3.03-.06,.47-.01,.9-.02,1.28-.02,.91,0,1.65,.07,2.2,.22,.56,.15,1.04,.4,1.45,.74,.67,.57,1.01,1.33,1.01,2.28,0,.47-.1,.93-.3,1.38-.2,.45-.47,.81-.8,1.07-.24,.19-.36,.37-.36,.52,0,.17,.14,.32,.43,.43,.56,.23,1.07,.61,1.53,1.14,.47,.55,.71,1.25,.71,2.08,0,.99-.36,1.89-1.08,2.7-.95,1.08-2.36,1.61-4.22,1.61-.25,0-.88-.02-1.87-.05-.9-.03-1.46-.05-1.66-.06Zm.71-11.14v2.12c0,.34,.04,.57,.13,.71,.09,.14,.24,.21,.45,.21,.51,0,.88-.16,1.12-.47,.24-.31,.36-.8,.36-1.46s-.12-1.14-.37-1.49c-.25-.35-.6-.53-1.05-.53-.24,0-.41,.07-.5,.2-.09,.13-.14,.38-.14,.72Zm0,5.92v.98c0,.9,.07,1.49,.2,1.79,.13,.29,.39,.44,.79,.44,1.04,0,1.56-.61,1.56-1.83,0-1.52-.58-2.28-1.75-2.28-.3,0-.51,.06-.63,.19-.12,.13-.17,.37-.17,.71Z"/></g><path class="d" d="M291.83,256.57h-6.74l-20.15-7.71s-5.01,12.24-28.17,12.24-30.59-12.52-30.59-12.52l-21.65,7.99h-7.73c-18.73,0-34.05,15.32-34.05,34.05v44.82c0,2.8,.35,5.51,.99,8.12v43.12c0,6.24,5.1,11.34,11.34,11.34h159.47c6.24,0,11.34-5.1,11.34-11.34v-96.07c0-18.73-15.32-34.05-34.05-34.05Z"/><polyline class="c" points="184.52 256.57 234.57 331.17 285.09 256.57"/><rect class="d" x="213.59" y="331.17" width="41.46" height="41.46"/></svg>