<?xml version="1.0" encoding="UTF-8"?><svg id="a" xmlns="http://www.w3.org/2000/svg" viewBox="0 0 595.28 595.28"><defs><style>.b{fill:#3362ac;}</style></defs><path class="b" d="M392.84,457.11h-92.75l1.35-38.62c13.74-.63,27.83-1.98,37.74-4.68,22.91-6.25,28.1-26.93,27.64-36.99-.06-1.43-.81-2.75-2-3.54l-14.19-9.46,20.93-9.75c2.13-.99,3.14-3.45,2.32-5.65l-6.27-16.81c10.21-.32,20.85-1.51,24.16-4.92,1.15-1.18,1.75-2.69,1.7-4.26-.27-8.65-17.81-36.37-24.33-46.39v-14.88c0-.1,0-.21-.01-.31-1.9-27.18-12.19-52.27-28.97-70.65-19.14-20.95-45.53-32.02-76.32-32.02s-58.18,13.05-78.85,36.74c-18.02,20.65-28.77,47.58-28.77,72.04,0,27.06,11.72,57.99,22.06,85.28,6.89,18.2,13.41,35.38,13.86,45.84,1.07,24.68-16.09,57.65-16.82,59.03h-21.94c-2.49,0-4.5,2.01-4.5,4.5s2.01,4.5,4.5,4.5h239.45c2.49,0,4.5-2.01,4.5-4.5s-2.01-4.5-4.5-4.5Zm-191.7-59.42c-.52-11.9-6.97-28.92-14.44-48.64-10.07-26.57-21.48-56.68-21.48-82.09,0-40.78,35.12-99.78,98.62-99.78s92.97,47.26,96.3,94.14v16.06c0,.88,.26,1.73,.74,2.47,10.07,15.38,20.92,34.04,23.17,40.95-3.9,1.08-13.41,1.91-22.89,1.91-1.47,0-2.86,.72-3.7,1.93s-1.04,2.76-.52,4.14l7.04,18.89-24.42,11.38c-1.47,.69-2.46,2.12-2.59,3.74-.12,1.62,.64,3.18,1.99,4.09l18.79,12.53c-.41,5.72-3.19,20.88-20.96,25.73-24.52,6.69-79.18,4.5-79.73,4.48-2.47-.1-4.58,1.83-4.68,4.31-.1,2.48,1.83,4.58,4.31,4.68,1.22,.05,17.17,.69,35.72,.21l-1.33,38.3h-105.69c4.98-10.33,16.71-37.19,15.75-59.42Z"/><path class="b" d="M404.04,410.5c-1.06,0-2.13-.37-2.98-1.13-1.86-1.65-2.03-4.49-.38-6.35,26.81-30.25,1.34-55.67,.24-56.73-1.78-1.73-1.83-4.58-.1-6.36,1.72-1.78,4.56-1.84,6.35-.12,.33,.32,32.86,32.39,.25,69.18-.89,1-2.13,1.51-3.37,1.51Z"/><path class="b" d="M433.01,425.17c-1.03,0-2.07-.35-2.92-1.08-1.89-1.61-2.12-4.45-.51-6.34,36.95-43.35,1.71-80.82,.19-82.39-1.72-1.79-1.68-4.63,.11-6.36,1.78-1.73,4.62-1.69,6.35,.09,.44,.45,10.86,11.3,16.13,28.36,4.92,15.88,6.14,40.24-15.94,66.14-.89,1.04-2.15,1.58-3.43,1.58Z"/><path class="b" d="M192.53,310.08c-1.75,0-3.42-1.03-4.14-2.74-.93-2.19-22.36-53.95,8.44-90.16,30.48-35.83,59.69-34.1,60.92-34.01,2.48,.18,4.34,2.34,4.16,4.82s-2.34,4.34-4.82,4.16c-.23-.01-26.1-1.22-53.4,30.87-27.17,31.93-7.21,80.33-7.01,80.81,.97,2.29-.1,4.93-2.39,5.9-.57,.24-1.17,.36-1.75,.36Z"/><path class="b" d="M247.96,356.97c-6.6,0-12.59-3.84-17.03-11.14-9.41-15.48-10.97-45.98,.32-55.98,4.84-4.28,9.94-6.04,15.16-5.22,8.97,1.41,14.29,9.96,14.86,10.93,1.27,2.14,.57,4.9-1.57,6.17-2.13,1.26-4.89,.57-6.16-1.56-1-1.64-4.47-6.03-8.56-6.65-2.47-.38-5.01,.63-7.77,3.08-6.6,5.83-6.99,30.75,1.41,44.56,5.46,8.99,11.17,6.79,13.05,6.06,2.32-.89,4.92,.26,5.82,2.58s-.26,4.92-2.58,5.82c-2.36,.91-4.69,1.36-6.95,1.36Z"/></svg>