<svg xmlns="http://www.w3.org/2000/svg" viewBox="0 0 70 70">
    <defs>
        <style>.cls-1{fill:#e23038;}.cls-2{fill:none;}</style>
    </defs>
    <g id="Capa_2" data-name="Capa 2">
        <g id="Capa_1-2" data-name="Capa 1">
            <path class="cls-1"
                d="M57.14,33.32H55.56V26.76A4.73,4.73,0,0,0,54,17.58H46V16a1.59,1.59,0,0,0-.7-1.31L35.87,8.41a1.54,1.54,0,0,0-1.74,0L24.68,14.7A1.59,1.59,0,0,0,24,16v1.57H16a4.73,4.73,0,0,0-1.57,9.18v6.56H12.86a4.72,4.72,0,0,0-1.57,9.17V60.28a1.57,1.57,0,0,0,1.57,1.58H57.14a1.57,1.57,0,0,0,1.57-1.58V42.49a4.72,4.72,0,0,0-1.57-9.17ZM46,20.73h8a1.58,1.58,0,0,1,0,3.15H46ZM46,27h6.4v6.29H46ZM27.13,16.85,35,11.61l7.87,5.24V33.32H27.13ZM16,20.73h8v3.15H16a1.58,1.58,0,0,1,0-3.15ZM24,27v6.29h-6.4V27Zm0,31.68H20.84V50.63a1.57,1.57,0,1,1,3.14,0Zm12.59,0H33.43V50.63a1.57,1.57,0,1,1,3.14,0Zm12.59,0H46V50.63a1.57,1.57,0,1,1,3.14,0Zm6.4,0H52.31V50.63a4.72,4.72,0,1,0-9.44,0v8.08H39.72V50.63a4.72,4.72,0,1,0-9.44,0v8.08H27.13V50.63a4.72,4.72,0,1,0-9.44,0v8.08H14.44v-16H55.56Zm1.58-19.09H12.86a1.58,1.58,0,0,1,0-3.15H57.14a1.58,1.58,0,0,1,0,3.15ZM35,17.58a4.73,4.73,0,1,0,4.72,4.73A4.73,4.73,0,0,0,35,17.58Zm0,6.3a1.58,1.58,0,1,1,1.57-1.57A1.57,1.57,0,0,1,35,23.88Z"></path>
            <rect class="cls-2" width="70" height="70"></rect>
        </g>
    </g>
</svg>