<svg xmlns="http://www.w3.org/2000/svg" viewBox="0 0 70 70" overflow="visible" xml:space="preserve">
<path fill="#3AA8F9" d="M42.6351471,37.4171791l-2.5084572-1.4483185c0.0308075-0.3336868,0.0459785-0.6553001,0.0459785-0.9688759
	c0-0.3135719-0.0151711-0.6351891-0.0459785-0.9688759l2.5084572-1.4483147
	c0.8246231-0.4761047,1.1071548-1.5306149,0.6310501-2.3552361l-3.4483681-5.972805
	c-0.4761047-0.8246193-1.5304985-1.1071548-2.3552322-0.631052l-2.5439758,1.4686623
	c-0.5232353-0.3616199-1.0717545-0.6796741-1.6428032-0.9524403v-3.0483532c0-0.9522095-0.7719765-1.724184-1.7241859-1.724184
	h-6.8967361c-0.9522095,0-1.724184,0.7719746-1.724184,1.724184v3.048357
	c-0.5710506,0.2727661-1.1195698,0.5908203-1.6428013,0.9524403l-2.5439758-1.4686623
	c-0.8247356-0.4763336-1.8792458-0.1936817-2.3552361,0.631052l-3.4483681,5.972805
	c-0.4761038,0.8246193-0.1935682,1.8791313,0.6310511,2.3552361l2.5084581,1.4483147
	c-0.0308056,0.3336868-0.0459785,0.655304-0.0459785,0.9688759c0,0.3135681,0.015173,0.6351891,0.0459785,0.9688721
	l-2.5084581,1.4483185c-0.8246193,0.4761047-1.1071558,1.5306168-0.6310511,2.3552322l3.4483681,5.972805
	c0.4761047,0.8247337,1.530386,1.1072693,2.3552361,0.6310501l2.5439758-1.4686623
	c0.5232334,0.361618,1.0717525,0.6796722,1.6428013,0.9524422v3.0483589c0,0.9522095,0.7719746,1.7241821,1.724184,1.7241821
	h6.8967361c0.9522095,0,1.7241859-0.7719727,1.7241859-1.7241821v-3.0483551
	c0.5709305-0.2728806,1.1194534-0.5908241,1.6427994-0.9524422l2.5439758,1.4686623
	c0.8246193,0.4762192,1.8791275,0.1935654,2.3552322-0.6310501l3.4483681-5.972805
	C43.7423019,38.9477959,43.4597664,37.8932838,42.6351471,37.4171791z M36.5631447,33.4310951
	c0.1098862,0.5961075,0.1610374,1.0946274,0.1610374,1.5688934s-0.0511513,0.9727859-0.1610374,1.568779
	c-0.1323013,0.7177162,0.2014999,1.4409561,0.8334732,1.8057938l2.0210876,1.1668129l-1.7241821,2.9864006l-2.0477562-1.1822166
	c-0.6322021-0.3650665-1.4259033-0.2923088-1.9810905,0.1814995c-0.8046188,0.6864548-1.7098141,1.2112961-2.6904163,1.5598145
	c-0.6874886,0.2443733-1.1466961,0.8950768-1.1466961,1.6246414v2.4727058h-3.4483681v-2.4727058
	c0-0.7295647-0.4592075-1.3801537-1.146698-1.6246414c-0.9806004-0.3485184-1.8857975-0.8733559-2.6904163-1.5598145
	c-0.5553017-0.47369-1.3488865-0.546566-1.9810886-0.1814995l-2.0477562,1.1822166l-1.724184-2.9864006l2.0210896-1.1668129
	c0.6317406-0.3648376,0.9655437-1.0880775,0.8332405-1.8057938c-0.1098881-0.595993-0.1610394-1.0945129-0.1610394-1.568779
	s0.0511513-0.9727859,0.1610394-1.568779c0.1323032-0.71772-0.2014999-1.4409561-0.8334713-1.8057957l-2.0210876-1.1668129
	l1.724184-2.9864025l2.0477562,1.1822166c0.6322002,0.3650665,1.4257851,0.2923069,1.9812031-0.1814976
	c0.8045025-0.6863403,1.7096996-1.2111835,2.6905308-1.559927c0.6873741-0.2443752,1.1465836-0.8949661,1.1465836-1.624527
	v-2.4727097h3.4483681v2.4725952c0,0.7295589,0.4592075,1.3801517,1.1465836,1.6245251
	c0.9808311,0.3487453,1.8860283,0.8735867,2.6905327,1.559927c0.5552979,0.4738045,1.3488846,0.5466805,1.9812012,0.1814976
	l2.0477562-1.1822147l1.7241821,2.9864006l-2.0210876,1.1668129C36.7645302,31.9901371,36.4308434,32.7133751,36.5631447,33.4310951
	z M28.1032639,29.8274345c-2.8521461,0-5.1725521,2.3204079-5.1725521,5.172554c0,2.8521423,2.320406,5.1725502,5.1725521,5.1725502
	s5.172554-2.3204079,5.172554-5.1725502C33.2758179,32.1478424,30.95541,29.8274345,28.1032639,29.8274345z M28.1032639,36.7241707
	c-0.9507141,0-1.724184-0.773468-1.724184-1.7241821s0.7734699-1.7241859,1.724184-1.7241859s1.724184,0.7734718,1.724184,1.7241859
	S29.053978,36.7241707,28.1032639,36.7241707z M49.1176186,15.4140615c-0.002758-0.002759-0.0055161-0.005517-0.0083885-0.0083904
	l-8.437355-8.3224068c-0.9762306-0.9733596-2.2728157-1.5093513-3.6518211-1.5093513H10.7464781
	c-2.8521447,0-5.1725516,2.3204069-5.1725516,5.1725521v41.6103058c0,2.8521423,2.3204069,5.1725502,5.1725516,5.1725502h20.2830696
	l9.9107246,6.6071892c0.5297852,0.3532333,1.210144,0.3851776,1.7699318,0.0855179
	c0.5605927-0.3000069,0.9105988-0.8842773,0.9105988-1.5201569v-5.172554h1.7241859
	c1.3741722,0,2.6836357-0.5284042,3.6873398-1.487854c1.0319824-0.9864616,1.6002731-2.2951164,1.6002731-3.6846924V19.071516
	C50.6326027,17.6898689,50.0945396,16.3909855,49.1176186,15.4140615z M40.1725502,11.4344149l4.5465584,4.4846029h-4.5465584
	V11.4344149z M47.1842346,52.3567734c0,0.9185295-0.8594475,1.7241821-1.8391304,1.7241821h-3.4483681
	c-0.9522095,0-1.7241859,0.7719765-1.7241859,1.7241859v3.6750374l-7.6645699-5.1096764
	c-0.283226-0.1888542-0.6159935-0.2895508-0.9563484-0.2895508H10.7464781c-0.9507151,0-1.724184-0.773468-1.724184-1.7241821
	V10.7464657c0-0.9507151,0.773469-1.724184,1.724184-1.724184h25.9777031v8.6209202
	c0,0.9522095,0.7719765,1.724184,1.7241859,1.724184h8.7358665V52.3567734z M59.253521,9.0222816
	c-2.8521423,0-5.1725502,2.3204069-5.1725502,5.1725521c0,0.3496647,0,33.7645798,0,34.6733398
	c-0.0047112,0.2055244,0.0277023,0.4192085,0.1012688,0.6238098l3.4356079,10.3068275
	c0.2347183,0.7040405,0.8934708,1.1788826,1.6356735,1.1788826s1.4009552-0.4748421,1.6356773-1.1789932l3.4356079-10.3068275
	c0.0647125-0.1801186,0.1004639-0.3742638,0.101265-0.5765648c0-0.0002327,0-0.0004616,0-0.0006905
	c0-0.0004616,0-0.0009193,0-0.0013809c0-0.0004578,0-0.0009193,0-0.0014954c0-0.0003433,0-0.0005722,0-0.0009155
	c0-0.0008049,0-0.0016136,0-0.0024147c0-0.9091034,0-34.3625298,0-34.7135696
	C64.4260712,11.3426886,62.1056671,9.0222816,59.253521,9.0222816z M59.253521,53.8011818l-1.056118-3.1685944h2.1123581
	L59.253521,53.8011818z M60.9777069,47.1842194h-3.4483681V22.8157539h3.4483681V47.1842194z M60.9777069,19.3673859h-3.4483681
	v-5.1725521c0-0.9507151,0.773468-1.724184,1.7241821-1.724184s1.7241859,0.773469,1.7241859,1.724184V19.3673859z"></path>
</svg>