<svg xmlns="http://www.w3.org/2000/svg" viewBox="0 0 70 70">
    <defs>
        <style>.cls-1{fill:#e23038;}.cls-2{fill:none;}</style>
    </defs>
    <g id="Capa_2" data-name="Capa 2">
        <g id="Capa_1-2" data-name="Capa 1">
            <path class="cls-1"
                d="M41,8a7.67,7.67,0,0,0-6,2.89A7.67,7.67,0,0,0,29,8H6.47V52.59H29a4.33,4.33,0,0,1,4.33,4.33h3.34A4.33,4.33,0,0,1,41,52.59h2.52v5.54A3.88,3.88,0,0,0,47.4,62h2.06a3.88,3.88,0,0,0,3.88-3.87V52.59H63.53V8ZM33.33,50.58A7.68,7.68,0,0,0,29,49.24H9.81V45.9H29a4.33,4.33,0,0,1,4.33,4.33Zm0-6.68A7.6,7.6,0,0,0,29,42.56H9.81V11.34H29a4.33,4.33,0,0,1,4.33,4.33Zm10.19,5.34H41a7.68,7.68,0,0,0-4.33,1.34v-.35A4.33,4.33,0,0,1,41,45.9h2.52ZM50,58.13a.53.53,0,0,1-.53.53H47.4a.53.53,0,0,1-.53-.53v-2H50Zm0-5.3H46.87V34.77H50ZM47,31.42l1.44-2,1.44,2Zm13.2,17.82H53.34V45.9h6.85Zm0-6.68H53.34v-12L50.1,26.05v-2.5H46.76v2.5l-3.24,4.46V42.56H41a7.6,7.6,0,0,0-4.33,1.34V15.67A4.33,4.33,0,0,1,41,11.34H60.19ZM13.32,15.24h16.5v3.35H13.32Zm0,20.07H24.25v3.34H13.32Zm0-6.69h16.5V32H13.32Zm16.5-6.69v3.35H25.36V21.93ZM22,25.28h-8.7V21.93H22Z"></path>
            <rect class="cls-2" width="70" height="70"></rect>
        </g>
    </g>
</svg>