<svg xmlns="http://www.w3.org/2000/svg" viewBox="0 0 70 70">
    <defs>
        <style>.cls-1{fill:#e23038;}.cls-2{fill:none;}</style>
    </defs>
    <g id="Capa_2" data-name="Capa 2">
        <g id="Capa_1-2" data-name="Capa 1">
            <path class="cls-1"
                d="M63.57,13.66c-8.59,0-12.11-3.56-17.9-3.56-4,0-7.94,3.15-10.67,6.14-2.73-3-6.62-6.14-10.67-6.14-5.79,0-9.31,3.56-17.9,3.56a1.78,1.78,0,0,0-1.78,1.78V58.12A1.78,1.78,0,0,0,6.43,59.9H63.57a1.78,1.78,0,0,0,1.78-1.78V15.44A1.78,1.78,0,0,0,63.57,13.66ZM8.21,56.34v-.05c7.89-.42,11.63-3.51,16.12-3.51,2.25,0,4.75,1.78,6.65,3.56Zm25-2.77c-2.44-2.25-5.58-4.34-8.89-4.34-5.38,0-8.79,3.06-16.12,3.5V17.17c7.89-.43,11.63-3.51,16.12-3.51,3.35,0,7.26,3.94,8.89,5.95Zm28.57,2.77H39c1.9-1.78,4.4-3.56,6.66-3.56,4.51,0,8.19,3.09,16.12,3.51Zm0-3.61c-7.32-.44-10.75-3.5-16.12-3.5-3.31,0-6.45,2.09-8.89,4.34v-34c1.63-2,5.52-5.95,8.89-5.95,4.51,0,8.19,3.08,16.12,3.51ZM42.11,24.33H56.34a1.78,1.78,0,0,1,0,3.56H42.11a1.78,1.78,0,0,1,0-3.56Zm16,8.89A1.78,1.78,0,0,1,56.34,35H42.11a1.78,1.78,0,0,1,0-3.56H56.34A1.78,1.78,0,0,1,58.12,33.22Zm0,7.12a1.78,1.78,0,0,1-1.78,1.77H42.11a1.78,1.78,0,0,1,0-3.55H56.34A1.78,1.78,0,0,1,58.12,40.34ZM29.66,26.11a1.78,1.78,0,0,1-1.77,1.78H13.66a1.78,1.78,0,0,1,0-3.56H27.89A1.78,1.78,0,0,1,29.66,26.11Zm0,7.11A1.78,1.78,0,0,1,27.89,35H13.66a1.78,1.78,0,0,1,0-3.56H27.89A1.78,1.78,0,0,1,29.66,33.22Zm0,7.12a1.77,1.77,0,0,1-1.77,1.77H13.66a1.78,1.78,0,1,1,0-3.55H27.89A1.77,1.77,0,0,1,29.66,40.34Z"></path>
            <rect class="cls-2" width="70" height="70"></rect>
        </g>
    </g>
</svg>