<svg xmlns="http://www.w3.org/2000/svg" viewBox="0 0 70 70">
    <defs>
        <style>.cls-1{fill:#e23038;}.cls-2{fill:none;}</style>
    </defs>
    <g id="Capa_2" data-name="Capa 2">
        <g id="Capa_1-2" data-name="Capa 1">
            <path class="cls-1"
                d="M66.76,57.37a1.89,1.89,0,0,0-1.58-.86H57.62L55.93,53.6l1.69-2.92h7.56a1.86,1.86,0,0,0,1.58-.86A1.84,1.84,0,0,0,66.89,48a13.42,13.42,0,0,0-24.15-.64H27.26A13.42,13.42,0,0,0,3.11,48a1.84,1.84,0,0,0,.13,1.79,1.86,1.86,0,0,0,1.58.86h7.56l1.69,2.92-1.69,2.91H4.82a1.89,1.89,0,0,0-1.58.86,1.86,1.86,0,0,0-.13,1.8,13.42,13.42,0,0,0,24.15.64H42.74a13.42,13.42,0,0,0,24.15-.64A1.86,1.86,0,0,0,66.76,57.37Zm-12.1,5.94a9.65,9.65,0,0,1-9-6.08A1.85,1.85,0,0,0,44,56.05H26.05a1.87,1.87,0,0,0-1.74,1.18,9.65,9.65,0,0,1-16,3h5.15a1.89,1.89,0,0,0,1.63-.94l2.78-4.79a1.91,1.91,0,0,0,0-1.88l-2.78-4.8a1.88,1.88,0,0,0-1.63-.93H8.31a9.65,9.65,0,0,1,16,3,1.87,1.87,0,0,0,1.74,1.18H44A1.87,1.87,0,0,0,45.69,50a9.65,9.65,0,0,1,16-3H56.54a1.88,1.88,0,0,0-1.63.93l-2.78,4.8a1.91,1.91,0,0,0,0,1.88l2.78,4.79a1.89,1.89,0,0,0,1.63.94h5.15A9.7,9.7,0,0,1,54.66,63.31Zm-34-36.17h.21c.19.52.41,1,.65,1.53l-.07.08a4.93,4.93,0,1,0,7,7l.12-.11a16,16,0,0,0,1.54.63v.14a4.93,4.93,0,0,0,9.86,0v-.21a14.76,14.76,0,0,0,1.49-.63l.11.12a4.93,4.93,0,0,0,7-7l-.14-.14A13,13,0,0,0,49,27.05h.18a4.93,4.93,0,0,0,4.93-4.93h0a4.93,4.93,0,0,0-4.93-4.93H49a12.83,12.83,0,0,0-.64-1.54l.16-.16a4.93,4.93,0,0,0-7-7l-.15.16c-.51-.24-1-.45-1.55-.64V7.86a4.93,4.93,0,0,0-9.85,0V8a14.62,14.62,0,0,0-1.58.66l-.12-.11a4.93,4.93,0,0,0-7,7l.14.13a15.6,15.6,0,0,0-.65,1.59h-.15a4.93,4.93,0,0,0,0,9.86Zm0-6.1h1.57a1.88,1.88,0,0,0,1.83-1.45,11,11,0,0,1,1.32-3.26A1.87,1.87,0,0,0,25.1,14L24,12.9a1.17,1.17,0,0,1,1.65-1.66l1.12,1.12a1.89,1.89,0,0,0,2.31.27,11,11,0,0,1,3.25-1.36,1.87,1.87,0,0,0,1.44-1.82V7.86a1.17,1.17,0,0,1,2.34,0V9.45a1.88,1.88,0,0,0,1.44,1.83,10.86,10.86,0,0,1,3.21,1.33A1.88,1.88,0,0,0,43,12.33l1.15-1.15a1.17,1.17,0,0,1,1.66,0,1.19,1.19,0,0,1,0,1.66L44.69,14a1.89,1.89,0,0,0-.27,2.31,11.13,11.13,0,0,1,1.33,3.21A1.88,1.88,0,0,0,47.58,21h1.58a1.17,1.17,0,0,1,0,2.34H47.58a1.88,1.88,0,0,0-1.83,1.44,11.18,11.18,0,0,1-1.31,3.18,1.88,1.88,0,0,0,.28,2.3l1.13,1.13A1.17,1.17,0,0,1,44.19,33l-1.11-1.11a1.89,1.89,0,0,0-2.32-.27,10.84,10.84,0,0,1-3.16,1.33,1.88,1.88,0,0,0-1.43,1.83v1.6a1.17,1.17,0,1,1-2.34,0V34.81A1.88,1.88,0,0,0,32.37,33a11,11,0,0,1-3.22-1.31,1.87,1.87,0,0,0-2.29.28l-1.11,1.11A1.17,1.17,0,1,1,24.1,31.4l1.07-1.07A1.88,1.88,0,0,0,25.44,28a11,11,0,0,1-1.36-3.2,1.88,1.88,0,0,0-1.82-1.43H20.65a1.17,1.17,0,0,1,0-2.34ZM34.92,30.5a8.38,8.38,0,1,0-8.38-8.38A8.38,8.38,0,0,0,34.92,30.5Zm0-13a4.62,4.62,0,1,1-4.62,4.62A4.63,4.63,0,0,1,34.92,17.5Z"></path>
            <rect class="cls-2" width="70" height="70"></rect>
        </g>
    </g>
</svg>