<svg xmlns="http://www.w3.org/2000/svg" viewBox="0 0 70 70" overflow="visible" xml:space="preserve">
<path fill="#3AA8F9" d="M69.6032028,50.5865288c-0.2672882,0.2696114-0.6190643,0.4045525-0.9708405,0.4045525
	c-0.3480835,0-0.6963043-0.1320686-0.9629059-0.3966217l-3.3370285-3.3099518
	c-0.5362129-0.5318336-0.5399017-1.3976746-0.0079346-1.9338837c0.5318375-0.5362129,1.3975372-0.5399017,1.9338837-0.0079308
	l3.3371658,3.3099556C70.131752,49.1844826,70.1353073,50.0503197,69.6032028,50.5865288z M62.8580513,41.9560394
	c-0.5340233-0.5340233-1.3995857-0.5340233-1.9338799,0l-0.002327,0.0023232
	c-0.5340233,0.5340233-0.5327911,1.3987656,0.0012321,1.9327888c0.2666016,0.2667351,0.6164627,0.4000397,0.9661865,0.4000397
	c0.3505478,0,0.7013702-0.1338501,0.9686508-0.4011345C63.3919373,43.3560333,63.3919373,42.4901962,62.8580513,41.9560394z
	 M37.4442558,54.4644203l-0.8788261,0.8819695c1.7270241,0.9678268,3.7050705,1.4061508,5.7062187,1.2420845l0.4335327-0.0355453
	c0.400177-0.0328102,0.7947502,0.1122475,1.0787125,0.3960724l7.5003777,7.5012016
	c0.5340233,0.5341568,0.5340233,1.3999939,0,1.934021c-0.2670135,0.2670059-0.6168747,0.4005814-0.9668732,0.4005814
	c-0.3498611,0-0.6998596-0.1337128-0.9668732-0.4005814l-7.0544014-7.0545425
	c-2.737793,0.181015-5.4303246-0.5173416-7.7198143-1.9861107l-9.0134411,9.0466652
	c-0.2670116,0.2682419-0.6179676,0.402359-0.9686508,0.402359c-0.3491802,0-0.6983585-0.1330261-0.9650974-0.3988037
	c-0.5351162-0.5330658-0.5366211-1.3989105-0.0035553-1.9338837L35.879921,52.1601601
	c0.2444534-0.2455482,0.5731201-0.3889618,0.9191589-0.4015427c4.7076302-0.1708984,9.1347084-2.0993156,12.4657211-5.4304619
	L62.530323,33.062767c0.9429512-0.9429474,0.9429512-2.477066,0-3.4198761
	c-0.9423981-0.9424019-2.4755592-0.9425373-3.4185066-0.0012302l-1.6816368,1.6816368
	c-0.2670135,0.2670097-0.617012,0.4005852-0.9668732,0.4005852s-0.6998596-0.1337109-0.9668732-0.4005852
	c-0.5340233-0.5341587-0.5340233-1.3999958,0-1.9340191l1.6804047-1.6804066l1.8370895-1.8370876
	c0.4569168-0.4566383,0.7083397-1.0639439,0.7083397-1.7098007c0-0.6459942-0.2514229-1.2530251-0.7082024-1.7098026
	c-0.4567757-0.4569111-1.0639381-0.7083378-1.7099342-0.7083378c-0.6458588,0-1.2530289,0.2514267-1.7098045,0.7083378
	l-3.5174942,3.5174942c-0.2670135,0.2670097-0.617012,0.4005852-0.9668732,0.4005852s-0.6998596-0.1337109-0.9668732-0.4005852
	c-0.5340233-0.5341587-0.5340233-1.3999958,0-1.9340191l3.5174942-3.5174942l1.3384781-1.3384743
	c0.9428101-0.9429474,0.9428101-2.4769287,0-3.4198761c-0.9429512-0.942812-2.4770699-0.9426746-3.4197426,0.0001364
	l-4.8559685,4.8559694c-0.2670135,0.2670097-0.617012,0.4005852-0.9668732,0.4005852s-0.6998596-0.1337109-0.9668732-0.4005852
	c-0.5340233-0.5341587-0.5340233-1.3999958,0-1.9340191l4.8559723-4.8559704l1.3383369-1.3383379
	c0.456913-0.4566393,0.7083397-1.0639429,0.7083397-1.7098017c0-0.6459942-0.2514267-1.2530241-0.7082024-1.7098007
	c-0.4567757-0.4569139-1.063942-0.7083387-1.709938-0.7083387s-1.2530251,0.2514248-1.7098007,0.7083387l-9.0772934,9.0772896
	c1.659626,2.0222015,1.5460167,5.0222168-0.3417969,6.9100266c-1.004467,1.0044708-2.3240776,1.5067749-3.6436844,1.5067749
	c-0.0686302,0-0.1371269-0.0021877-0.2056236-0.004921c0.0027351,0.0691776,0.0050583,0.1383572,0.0050583,0.2079468
	c0,1.3763466-0.5360718,2.6703873-1.5092354,3.6436863c-1.0044708,1.0044708-2.3242149,1.5067749-3.6436844,1.5067749
	c-0.068634,0-0.1371288-0.0021858-0.2056255-0.004921c0.0027351,0.0691776,0.0050583,0.1383591,0.0050583,0.2079468
	c0,1.3763466-0.5360737,2.6703873-1.5092354,3.6436882c-1.0043335,1.0043335-2.3243523,1.5066338-3.6436863,1.5067711
	c-0.069313,0-0.1386299-0.0020523-0.2079468-0.004921c0.0556431,1.3879662-0.4444733,2.7943878-1.5018539,3.851635
	c-0.973299,0.9733009-2.2673397,1.5093727-3.6436863,1.5093727c-0.9079456,0-1.7791176-0.234333-2.546792-0.6723824
	L2.3342638,55.5127716c-0.2670114,0.2670135-0.6170108,0.4005852-0.9668735,0.4005852s-0.6998621-0.133709-0.9668733-0.4005852
	c-0.5340226-0.5341568-0.5340226-1.3999939,0-1.9340172L13.830925,40.1486168l-2.7280817-2.7279472
	c-2.009079-2.0092163-2.009079-5.2784271,0-7.287508c0.6942568-0.6941204,1.5520287-1.1644325,2.4859533-1.3778496
	c-0.8819714-1.9057198-0.5383978-4.2436047,1.0307207-5.8127251c0.7626162-0.7627506,1.7226534-1.2554855,2.7644491-1.4336281
	c-0.1691208-0.5142002-0.2583981-1.057518-0.2583981-1.6147842c0-1.3763447,0.5360737-2.6703854,1.5092354-3.6436844
	c0.7814846-0.7813482,1.7539616-1.2574024,2.7682781-1.4308977c-0.5885754-1.7896452-0.1739063-3.8401499,1.2468719-5.2609282
	c0.9732971-0.9731617,2.2673397-1.5092354,3.6438217-1.5092354c0.6898804,0,1.3591175,0.1349411,1.9776325,0.3918352
	c-0.2321472-0.6569319-0.3535538-1.3555636-0.3535538-2.0731993V4.5748644c0-0.7550964,0.6123619-1.3674586,1.3674583-1.3674586
	h10.7378731c2.5168533,0,4.9440193,1.0566976,6.658741,2.89939l0.1319351,0.141777
	c0.7466202-0.4071479,1.5870285-0.6239834,2.461071-0.6239834c1.3763466,0,2.6703873,0.5360737,3.6436844,1.5092359
	c0.9731636,0.9731627,1.5092354,2.2672033,1.5092354,3.6436853c0,0.5583591-0.08955,1.102499-0.2593536,1.6177912
	c1.0134926,0.1739054,1.9846039,0.6496859,2.7654037,1.4303484c1.4200935,1.4199591,1.8351746,3.4689589,1.2479668,5.2580576
	c1.0430222,0.177597,2.0040169,0.6706047,2.7673187,1.4340401c0.9731636,0.9731636,1.5092354,2.2672062,1.5092354,3.6436863
	c0,0.7630253-0.1654282,1.500349-0.4779701,2.172184c0.9113693,0.2087708,1.7766571,0.6662292,2.4851379,1.3747063
	c2.0092163,2.0092163,2.0092163,5.2784309,0.0001373,7.2876434L51.2002029,48.2613602
	C47.507843,51.9538536,42.641758,54.1438103,37.4442558,54.4644203z M20.1511497,35.7621384l-3.6949539-3.6948166
	c-0.4566402-0.4569111-1.0639439-0.7083378-1.7098026-0.7083378s-1.2531614,0.2514267-1.709939,0.7083378
	c-0.9428101,0.9429474-0.9428101,2.4770699,0,3.4198799l3.6949549,3.6948166
	c0.4566402,0.4569168,1.0638065,0.7083397,1.7098026,0.7083397c0.6457195,0,1.2530231-0.2514229,1.7098007-0.7083397
	C21.0938225,38.2390709,21.0938225,36.7049522,20.1511497,35.7621384z M26.2128391,32.1183205
	c0-0.6458607-0.2514267-1.2530289-0.7083397-1.70994c-0.0001373,0-0.0001373,0-0.0001373,0l-5.5320415-5.5320415
	c-0.4566402-0.456913-1.0638065-0.7083397-1.7098026-0.7083397c-0.6457195,0-1.2530231,0.2514267-1.7098007,0.7083397
	c-0.9428101,0.9428101-0.9428101,2.4769287,0,3.4197407l1.837225,1.8372231l3.6949539,3.6949558
	c0.9425373,0.9428101,2.4769287,0.9428101,3.4198761,0C25.9614143,33.3714828,26.2128391,32.7641754,26.2128391,32.1183205z
	 M31.5661888,26.7646942c0-0.6459942-0.2514248-1.2530251-0.708065-1.7098007h-0.0001373l-3.7400723-3.7400742l-3.1313992-3.1313992
	c-0.4712696-0.4705849-1.089922-0.7060146-1.7087097-0.7060146c-0.6190605,0-1.2383957,0.2357025-1.7098007,0.7071075
	c-0.456913,0.4566402-0.7083397,1.0639439-0.7083397,1.7098007c0,0.6459942,0.2514248,1.2530251,0.7082024,1.7098026
	l6.8705139,6.8705177c0.9426746,0.9428101,2.4769306,0.9426746,3.419878,0
	C31.3150368,28.0179939,31.5664635,27.4106903,31.5661888,26.7646942z M36.9199562,21.4107952
	c0-0.6458569-0.2514267-1.2530231-0.7083397-1.7098007l-8.2087173-8.2087173
	c-0.4712677-0.4715414-1.0906029-0.7072449-1.7098026-0.7072449s-1.238533,0.2357035-1.709938,0.7072449
	c-0.942812,0.9429483-0.942812,2.4769297,0,3.4198771l1.3361492,1.3361502
	c0.0008202,0.0008202,0.0016384,0.0015049,0.0023232,0.0021877l6.8705139,6.8705158
	c0.9428101,0.9428101,2.4769325,0.9428101,3.4197426,0C36.6687965,22.6643696,36.9200897,22.0569267,36.9199562,21.4107952z
	 M44.7353287,8.0296078l-0.055645-0.0597463c-1.199295-1.2887092-2.8966599-2.0276728-4.6569099-2.0276728H30.652359v0.4257412
	c0,0.9310536,0.3632603,1.8052316,1.0230637,2.4620271c0.6557045,0.6525583,1.5253677,1.0114441,2.4499969,1.0114441
	c0.0057411,0,0.0112076,0,0.0169525,0l3.7526474-0.0176363c0.0021896,0,0.0043793,0,0.0065651,0
	c0.7522278,0,1.3637657,0.6079874,1.367321,1.3610334c0.0035553,0.7552328-0.6059303,1.3703289-1.3610306,1.3738842
	l-3.7526474,0.0176363c-0.0101166,0-0.020237,0-0.0302162,0c-0.4457016,0.0001364-0.8836098-0.0481243-1.3094902-0.1390429
	l3.7559319,3.7559309L44.7353287,8.0296078z"></path>
</svg>