<svg xmlns="http://www.w3.org/2000/svg" viewBox="0 0 70 70">
    <defs>
        <style>.cls-1{fill:#e23038;}.cls-2{fill:none;}</style>
    </defs>
    <g id="Capa_2" data-name="Capa 2">
        <g id="Capa_1-2" data-name="Capa 1">
            <path class="cls-1"
                d="M63,33.26V37H53.66C47,37,42.74,31.91,42.39,26c-.33-5.44,2.76-10.24,8.3-11.4a11.35,11.35,0,0,0-18.18,1.05C27,21.8,22.42,35.61,7,36.92V33.17C20,32,24.5,18.92,29.47,13.47a15.09,15.09,0,0,1,26,1.68S56.53,18,53.9,18c-5.61,0-8,3.46-7.78,7.74.22,3.6,2.67,7.48,7.54,7.48ZM51.55,48.86a1.87,1.87,0,0,0-2.78,0c-3.71,4.1-8.45,4.13-12.19,0a1.87,1.87,0,0,0-2.78,0c-3.72,4.1-8.45,4.13-12.19,0a1.87,1.87,0,0,0-2.78,0c-3.61,4-7.71,4.15-11.82.47V54c4.66,2.81,9,2.15,13.21-1.3,4.75,3.93,9.87,4.21,15,0,4.75,3.93,9.87,4.21,15,0C54.24,56,58.49,56.72,63,54.16V49.62C59.27,52.75,55.3,53,51.55,48.86Zm0,7.48a1.87,1.87,0,0,0-2.78,0c-3.71,4.1-8.45,4.12-12.19,0a1.87,1.87,0,0,0-2.78,0c-3.72,4.1-8.45,4.12-12.19,0a1.87,1.87,0,0,0-2.78,0c-3.61,4-7.71,4.14-11.82.47v4.63c4.66,2.81,9,2.16,13.21-1.3,4.75,3.93,9.87,4.21,15,0,4.75,3.93,9.87,4.21,15,0,4.08,3.37,8.33,4.06,12.85,1.5V57.11C59.27,60.23,55.3,60.47,51.55,56.34Zm0-15a1.87,1.87,0,0,0-2.78,0c-3.71,4.09-8.45,4.12-12.19,0a1.87,1.87,0,0,0-2.78,0c-3.72,4.09-8.45,4.12-12.19,0a1.87,1.87,0,0,0-2.78,0c-3.61,4-7.71,4.14-11.82.47v4.63c4.66,2.81,9,2.16,13.21-1.3,4.75,3.93,9.87,4.21,15,0,4.75,3.93,9.87,4.21,15,0,4.08,3.37,8.33,4.06,12.85,1.5V42.14C59.27,45.26,55.3,45.49,51.55,41.37ZM7,54Z"></path>
            <rect class="cls-2" width="70" height="70"></rect>
        </g>
    </g>
</svg>