<?xml version="1.0" encoding="UTF-8"?><svg id="a" xmlns="http://www.w3.org/2000/svg" viewBox="0 0 595.28 595.28"><defs><style>.b,.c,.d,.e{stroke:#3362ac;stroke-width:9px;}.b,.d{fill:#fff;}.b,.d,.e{stroke-linejoin:round;}.b,.e{stroke-linecap:round;}.f{fill:#3362ac;}.c{stroke-miterlimit:10;}.c,.e{fill:none;}.d{stroke-linecap:square;}</style></defs><path class="c" d="M248.71,195.91s39.21,19.86,56.73-19.86c0,0,17.53,23.66,39.73,12.41,0,0,13.38,85.74-48.23,85.74s-48.23-78.29-48.23-78.29Z"/><path class="c" d="M273.48,303.41h-54.5s-36.87-175.27,77.96-181.11c114.83-5.84,78.61,181.11,78.61,181.11h-53.75"/><g><line class="c" x1="273.48" y1="269.19" x2="273.48" y2="303.41"/><line class="c" x1="321.8" y1="303.41" x2="321.8" y2="269.19"/><path class="c" d="M358.61,303.41h-36.81v9.35l-24.86,19.86-23.46-21.03v-8.18h-36.81c-22.81,0-41.48,18.67-41.48,41.48v63.1c0,22.81,18.67,41.48,41.48,41.48h121.93c22.81,0,41.48-18.67,41.48-41.48v-63.1c0-22.81-18.67-41.48-41.48-41.48Z"/></g><rect class="b" x="262.47" y="393.38" width="71.67" height="31.16"/><circle class="f" cx="298.3" cy="376.44" r="26.87"/><polygon class="f" points="312.44 493.09 284.16 493.09 281.73 424.54 314.86 424.54 312.44 493.09"/><polyline class="b" points="195.19 360.67 195.19 468.94 262.47 473.62 265.32 442.46 266.1 433.89 230.65 424.54 230.65 382.48"/><path class="d" d="M298.3,446.35c6.75,21.81-4.93,27.26-4.93,27.26l-30.9-5.45,2.85-25.71,32.98,3.9Z"/><polyline class="e" points="362.25 365.14 362.25 408.96 334.13 408.96"/></svg>