<?xml version="1.0" encoding="UTF-8"?><svg id="a" xmlns="http://www.w3.org/2000/svg" viewBox="0 0 595.28 595.28"><defs><style>.b{stroke-linecap:round;stroke-linejoin:round;stroke-width:9px;}.b,.c{stroke:#3362ac;}.b,.c,.d{fill:#fff;}.e,.f{fill:#3362ac;}.g{fill:none;stroke-width:2px;}.g,.c,.d,.f{stroke-miterlimit:10;}.g,.d,.f{stroke:#fff;}</style></defs><path class="e" d="M192.74,200.1c0-22.19-17.99-40.17-40.17-40.17s-40.17,17.99-40.17,40.17,17.99,40.18,40.17,40.18c.61,0,1.22-.02,1.82-.05l16.23,13.73,1.72-18.89c12.18-6.9,20.41-19.97,20.41-34.97Z"/><path class="e" d="M419.82,118.3c-25.11,0-45.47,20.36-45.47,45.47,0,16.98,9.31,31.77,23.1,39.59l1.94,21.38,18.36-15.54c.69,.03,1.37,.05,2.07,.05,25.11,0,45.47-20.36,45.47-45.48s-20.36-45.47-45.47-45.47Z"/><path class="b" d="M282.27,223.59s12.71-21.92,36.82-20.6c24.11,1.32,27.18,16.22,27.18,16.22,0,0,10.96-8.77,28.93,0,17.97,8.77,11.4,25.42,11.4,25.42,0,0,13.15-6.65,20.6-.44,10.52,8.77,7.31,26.51,7.31,26.51l-93.67,63.75-54.36-99.03,15.78-11.84Z"/><path class="b" d="M402.39,463.81s-30.25-1.75-35.07-30.69c-4.82-28.93,3.95-49.1-32-55.23-35.95-6.14-49.97,3.07-49.97,3.07l-5.26,24.99s15.34,36.38,54.36,20.6c0,0-4.38,48.22,67.95,37.26Z"/><path class="b" d="M354.39,339.31s-10.74-39.45,16-47.34c0,0-3.51-25.86,21.04-28.93s29.6,17.53,28.39,25.86c0,0,22.9,1.32,22.46,31.12-.44,29.81-11.4,37.26-35.07,39.01-23.67,1.75-52.82-19.73-52.82-19.73Z"/><path class="b" d="M315.59,364.3s-14.47,50.02,29.81,37.7c.44,42.52,67.95,24.37,47.34-12.32,0,0,32.44,7.5,26.3-34.58-6.14-42.08-104.3-9.86-103.45,9.21Z"/><path class="b" d="M290.16,243.31c29.37-21.92-5.26-72.77-36.38-27.62,0,0-24.99-13.59-36.82,12.71,0,0-33.32-5.88-34.63,34.32,0,0-37.26,17.41-16.22,55.98,0,0-12.27,31.11,21.04,32.43,0,0-2.19,24.99,31.12,19.73,33.32-5.26,75.4-38.6,64-71.01,25.05,3.51,39.45-42.52,7.89-56.55Z"/><path class="b" d="M246.33,344.14s-24.11,.44-25.42,21.92c-1.32,21.48,16.66,26.2,27.62,23.62,0,0,6.58,29.86,41.64,17.58s23.17-48.12,23.17-48.12c0,0,13.22,20.5,36.89,13.93,23.67-6.58,16.35-26.08,16.35-26.08,0,0,33.62-.23,26.17-31.35-7.45-31.12-49.53-24.32-56.11-4.71,0,0-42.96-30.8-56.55,9.97,0,0-31.12-5.7-33.75,23.23Z"/><g><path class="d" d="M431.92,167.85c1.8-6.6-2.09-13.4-8.69-15.2-6.6-1.8-13.4,2.09-15.2,8.69-.93,3.43,1.22,5.76,1.39,9.73,.17,3.97-2.16,12.15-2.16,12.15l14.53,3.96s2.67-8.16,4.3-11.57c1.62-3.39,4.89-4.33,5.83-7.76Z"/><path class="d" d="M425.17,168.97l-8.75,14.78-2.92-.8,.59-16.73s1.17-2.09,1.65-1.96-.56,5.06,.83,4.13,1.41-3.29,2.71-3.17-.84,3.09,.31,3.75,1.65-4.17,2.8-3.5-.76,3.93,.13,4.06,1.13-2.65,1.96-2.31,.69,1.73,.69,1.73Z"/><path class="e" d="M416.27,184.28l-2.92-.8c-.25-.07-.42-.3-.41-.55l.59-16.73c0-.09,.03-.17,.07-.25,1.38-2.46,2.01-2.29,2.28-2.22,.61,.17,.58,.84,.51,2.17-.03,.54-.07,1.46,0,1.92,.41-.35,.69-.91,.95-1.45,.41-.84,.88-1.8,1.97-1.7,.41,.04,.63,.24,.75,.41,.34,.5,.15,1.21-.05,1.96-.1,.38-.31,1.14-.21,1.39,.21-.25,.49-.96,.66-1.4,.4-1.01,.75-1.89,1.39-2.11,.27-.09,.54-.06,.8,.09,.96,.56,.66,1.88,.39,2.98,.3-.7,.76-1.63,1.64-1.26,.96,.4,1.1,1.63,1.03,2.29,0,.08-.03,.16-.07,.23l-8.75,14.78c-.13,.21-.38,.32-.62,.25Zm-2.21-1.75l2.09,.57,8.47-14.3c0-.3-.05-.77-.25-.98-.11,.17-.26,.51-.35,.72-.32,.74-.72,1.67-1.58,1.55-.23-.03-.43-.15-.56-.34-.3-.44-.13-1.09,.07-1.92,.12-.47,.37-1.5,.22-1.8-.21,.25-.49,.96-.67,1.41-.4,1.01-.75,1.89-1.39,2.11-.27,.09-.54,.06-.8-.09-.95-.55-.6-1.8-.36-2.71,.08-.29,.2-.75,.21-.97-.27,.03-.47,.38-.81,1.08-.34,.7-.73,1.49-1.48,1.99-.48,.32-.84,.2-1.02,.1-.64-.36-.64-1.42-.57-3.11,0-.16,.02-.34,.02-.51-.21,.29-.46,.66-.67,1.04l-.57,16.15Zm2.13-14.56h0Z"/><path class="c" d="M422.49,185.87l-15.47-4.21c-.87-.24-1.82,.44-2.12,1.51-.15,.56-.09,1.11,.12,1.55-.4,.27-.73,.72-.88,1.27-.15,.56-.09,1.11,.12,1.55-.4,.27-.73,.72-.89,1.28-.29,1.07,.18,2.14,1.06,2.38l15.47,4.21c.87,.24,1.82-.44,2.12-1.51,.15-.56,.09-1.11-.12-1.55,.4-.27,.73-.72,.89-1.28,.15-.56,.09-1.11-.12-1.55,.4-.27,.73-.72,.89-1.28,.29-1.07-.18-2.14-1.06-2.38Z"/><path class="f" d="M424.84,148.46c-.6-.16-.95-.78-.79-1.38l3.07-11.28c.16-.6,.78-.95,1.38-.79s.95,.78,.79,1.38l-3.07,11.28c-.16,.6-.78,.95-1.38,.79Z"/><path class="f" d="M435.32,155.39c-.22-.06-.43-.19-.59-.39-.38-.49-.3-1.2,.19-1.58l10.09-7.95c.49-.39,1.2-.3,1.58,.19,.38,.49,.3,1.2-.19,1.58l-10.09,7.95c-.29,.23-.66,.29-.99,.2Z"/><path class="f" d="M437.38,169.11c-.53-.14-.89-.66-.82-1.22,.07-.62,.63-1.06,1.25-.99l10.41,1.21c.62,.07,1.06,.63,.99,1.25s-.63,1.06-1.25,.99l-10.41-1.21c-.06,0-.11-.02-.17-.03Z"/><path class="f" d="M411.56,149.1c-.33-.09-.62-.33-.75-.68l-4.66-11.97c-.23-.58,.06-1.23,.64-1.46,.58-.23,1.23,.06,1.46,.64l4.66,11.97c.23,.58-.06,1.23-.64,1.46-.23,.09-.48,.1-.7,.04Z"/><path class="f" d="M402.82,159.89c-.05-.01-.11-.03-.16-.06l-9.59-4.24c-.57-.25-.83-.92-.57-1.48,.25-.57,.91-.83,1.48-.57l9.59,4.24c.57,.25,.83,.92,.57,1.48-.23,.52-.8,.77-1.32,.63Z"/></g><path class="g" d="M146.01,185.3l.94,4.57c2.05-.42,4.06,.9,4.48,2.95s-.9,4.06-2.95,4.48l.94,4.57,4.57-.94c.42,2.05,2.43,3.37,4.48,2.95s3.37-2.43,2.95-4.48l4.57-.94-3.4-16.57-16.57,3.4Z"/><path class="g" d="M146.95,189.87l-.94-4.57-16.57,3.4,3.4,16.57,3.82-.78c-.42-2.05,.9-4.06,2.95-4.48s4.06,.9,4.48,2.95l5.32-1.09-.94-4.57c2.05-.42,3.37-2.43,2.95-4.48-.42-2.05-2.43-3.37-4.48-2.95Z"/><path class="g" d="M150.46,206.98h0l-1.05-5.1-5.37,1.1c-.42-2.05-2.43-3.37-4.48-2.95s-3.37,2.43-2.95,4.48l-3.77,.77,3.4,16.57,16.57-3.4-.83-4.04h0c2.05-.42,3.37-2.43,2.95-4.48s-2.43-3.37-4.48-2.95Z"/><path class="g" d="M175.28,208.96c.1,2.09-1.52,3.87-3.62,3.96s-3.87-1.52-3.96-3.62l-4.66,.21,.24,5.18c2.09-.1,3.87,1.52,3.96,3.62s-1.52,3.87-3.62,3.96l.19,4.14,16.9-.77-.77-16.9-4.66,.21Z"/></svg>