<?xml version="1.0" encoding="UTF-8"?><svg id="a" xmlns="http://www.w3.org/2000/svg" viewBox="0 0 483.27 483.27"><defs><style>.b{fill:none;stroke:#3362ac;stroke-linecap:round;stroke-linejoin:round;stroke-width:7px;}</style></defs><path class="b" d="M259.13,329.2c-1.27-4.39-5.9-6.95-10.29-5.69l-41.41,11.93h0l48-16.86c4.16-1.2,6.58-5.58,5.38-9.74s-5.58-6.58-9.74-5.38l-48.86,12.28c-.83,.24,0,0,0,0l39.82-13.52c3.48-1,5.51-4.67,4.51-8.16l-.56-1.95c-1-3.48-4.67-5.51-8.16-4.51l-45.34,13.06-17.93,3.54,14.55-16.51h0l5.8-6.58c3.32-3.76,2.95-9.56-.81-12.87h0c-3.76-3.32-9.56-2.95-12.87,.81l-39.3,44.61c-.37,.42-.69,.87-.97,1.34l-57.54,17.73,26.63,62.33,32.95-15.1,30.2,.27,33.84-9.94h0l33.53-9.66c3.48-1,5.51-4.67,4.51-8.16h0c-1-3.48-4.67-5.51-8.16-4.51l-29.71,8.56h0s-1.41,.41,0,0l46.27-17.03c4.39-1.27,6.95-5.9,5.69-10.29h0Z"/><path class="b" d="M363.45,196.26c-14.83-20.59-40.36-16.2-40.36-16.2l-89.68,27.62-7.63,1.06c-5.72,.8-9.75,6.13-8.95,11.85h0c.8,5.73,6.13,9.76,11.85,8.96l21.71-.54,9.55,2.93,.75,8.85-46.13,46.13c-2.23,2.23-3.21,5.27-2.92,8.2l26.17-7.54c1.57-.45,3.18-.28,4.57,.35l34.28-31.03h0l-32.36,32.36c.76,.76,1.35,1.72,1.67,2.82l.56,1.95c1,3.48-1.02,7.15-4.51,8.16l-11.06,5.7c-.18,1.26-.29-1.25,0,0l20.11-4.46c2.39-.69,4.84-.18,6.73,1.16l34.88-31.54h0l-33.18,33.18c.58,.75,1.03,1.62,1.31,2.59,1.2,4.16-1.22,8.54-5.38,9.74l-8.42,4.4c-.2,1.01,0,0,.11,1.02l1.72-.5c4.39-1.27,9.03,1.29,10.29,5.69h0c.36,1.24,.4,2.49,.19,3.69,1.88-.39,3.67-1.3,5.12-2.75l44.91-40.25h0c-.5,.34-.98,.73-1.42,1.17l-24.65,24.65c-3.96,3.96-3.96,10.45,0,14.42,3.96,3.96,10.45,3.96,14.42,0l24.65-24.65c.42-.42,.79-.88,1.12-1.35h0s50.85-59.58,53.71-64.49,1.1-22.79-13.73-43.38Z"/><path class="b" d="M272.77,230.89s37.07,5.77,49.42-9.06"/><line class="b" x1="338.67" y1="179.67" x2="381.51" y2="150.16"/><line class="b" x1="378.33" y1="226.08" x2="415.28" y2="198.76"/></svg>