<svg xmlns="http://www.w3.org/2000/svg" viewBox="0 0 70 70" overflow="visible" xml:space="preserve">
<path fill="#3AA8F9" d="M67.3974152,59.2754288V18.781702c0.0001068-2.9820843-2.4173813-5.3995171-5.3995209-5.3995171h-3.29245
	l2.1234245-2.1234837c0.000679-0.0006199,0.0013542-0.0012407,0.0020332-0.0018616
	c1.5567436-1.5577593,1.5558395-4.0826154-0.0020332-5.6393585l-1.8655853-1.865531
	c-1.5785217-1.5068681-4.0628128-1.5068681-5.6412201,0l-9.6302376,9.6302347H12.0514326
	c-2.2364931,0-4.0496101,1.813117-4.0496101,4.0496655v9.8542805l-5.0041246,5.0041256
	c-0.5269637,0.5270767-0.5269637,1.3815575,0,1.908802l5.0041246,5.0040703V52.529274
	c0,2.2366066,1.813117,4.0497246,4.0496101,4.0497246h13.3263159l10.4037533,10.403698
	c0.2531013,0.253273,0.5964737,0.3955078,0.9544029,0.3955078c0.3579292-0.0001755,0.7011909-0.1424103,0.9542923-0.3955078
	l7.7133026-7.7133064c0.5270767-0.5271873,0.5270767-1.3816719,0.0001144-1.9088058l-0.7815323-0.7815857h11.9761848v6.7494812
	c0,0.745533,0.6043701,1.3499641,1.3500175,1.3499641h4.0496101c2.9821396,0,5.3996277-2.4174347,5.3996277-5.3996887
	C67.397522,59.277626,67.3974152,59.2765541,67.3974152,59.2754288z M34.3425636,27.7343884l2.5064087,2.5065193
	l-3.7605133,1.2556286L34.3425636,27.7343884z M35.6586189,25.2328892l14.886219-14.8850899l3.6887474,3.6887465
	L39.3479309,28.9221439L35.6586189,25.2328892z M55.2322235,5.6606426c0.5098114-0.4871316,1.3125572-0.4871316,1.8223686,0
	l1.8669395,1.864233c0.0001144,0.0002818,0.0003395,0.0003948,0.0005646,0.0006771
	c0.5032692,0.5035496,0.5030403,1.3197784-0.0005646,1.823103l-2.7789154,2.7789154l-3.6887474-3.6887465L55.2322235,5.6606426z
	 M12.0514326,53.8792381c-0.7454224,0-1.3499079-0.6044273-1.3499079-1.3499641V41.902832l11.9765224,11.9764061H12.0514326z
	 M36.7359047,64.119545L5.8607926,33.2446022l5.8047261-5.804615l3.6822014,3.6822033l-2.9040556,2.9039974l1.9090309,1.9090309
	l2.9039421-2.9039993l3.4925175,3.4924622l-2.9022503,2.9021378l1.9090309,1.9090309l2.9022503-2.902195l3.4903736,3.4905434
	l-2.9021378,2.9022484l1.9089184,1.9090309l2.9022503-2.9022484l3.4892445,3.4891319l-2.903717,2.903717l1.9089184,1.9090309
	l2.9038315-2.903717l3.4930801,3.4931946l-2.9038315,2.9038277l1.9090309,1.9090309l2.9038315-2.9038849l3.6824265,3.6824837
	L36.7359047,64.119545z M41.9222679,53.8792381L12.6198082,24.5768375c-0.5270767-0.5269642-1.3815022-0.5269642-1.9088049,0
	l-0.0094786,0.0094776v-7.1544647c0-0.7454777,0.6044855-1.3499069,1.3499079-1.3499069H40.992012l-8.1964874,8.1966
	c-0.1541405,0.1540833-0.2491493,0.338747-0.3132439,0.5323811l-0.0134277-0.0045147l-2.7996788,8.3976803
	c-0.0458126,0.137722-0.0692844,0.2818184-0.0692844,0.4268761c0.0001144,0.7455368,0.604599,1.3497963,1.3502464,1.3495674l0,0l0,0
	h20.2486134V32.280777H39.2745857l0.4943504-0.1648026l-0.0027084-0.0080681
	c0.1993904-0.0654488,0.3847885-0.1712933,0.5359917-0.3224983l15.7034073-15.7034645h5.9922676
	c1.4910698,0,2.6998138,1.2086887,2.6998138,2.6997585v35.8257523c-0.7948456-0.4603882-1.715168-0.7282143-2.6998138-0.7282143
	H41.9222679z M61.9978943,61.9786835h-2.6998138v-5.3996849h2.6998138c1.4910698,0,2.6998138,1.208744,2.6998138,2.6997566
	C64.6977081,60.7699394,63.4889641,61.9786835,61.9978943,61.9786835z M53.8984489,32.280777h2.6998177v2.6997566h-2.6998177
	V32.280777z M61.9978943,34.9805336h-2.6998138V32.280777h2.6998138V34.9805336z"></path>
</svg>