<svg xmlns="http://www.w3.org/2000/svg" viewBox="0 0 70 70">
    <defs>
        <style>.cls-1{fill:#e23038;}.cls-2{fill:none;}</style>
    </defs>
    <g id="Capa_2" data-name="Capa 2">
        <g id="Capa_1-2" data-name="Capa 1">
            <path class="cls-1"
                d="M28.56,18.89h3.22v3.22H28.56Zm9.66,3.22h3.22V18.89H38.22Zm24.17-3.22v9.67H59.17V39.83H51.11v6.45h5l-2,16.11H43.06V49.5H28.56V62.39H17.47l-2-16.11h3.44V39.83H10.83V28.56H7.61V18.89h3.22v6.44h3.22V18.89h3.23v9.67H14.05v8.05h4.84V31.78h8.05V28.56H20.5V23.72a14.49,14.49,0,0,1,25.78-9.1v-7h6.44v3.22H49.5V28.56H43.06v3.22h8v4.83H56v-8H52.72V18.89H56v6.44h3.22V18.89ZM46.28,25.33V23.72a11.28,11.28,0,0,0-22.56,0v1.61ZM30.17,28.56v3.22h9.66V28.56ZM25.33,56H19.91l.4,3.22h5Zm0-6.45H19.1l.4,3.22h5.83Zm22.56-3.22V35H22.11V46.28ZM51.7,56H46.28v3.22h5ZM46.28,49.5v3.22h5.83l.4-3.22ZM26.94,41.44H44.67V38.22H26.94Z"></path>
            <rect class="cls-2" width="70" height="70"></rect>
        </g>
    </g>
</svg>