<svg xmlns="http://www.w3.org/2000/svg" viewBox="0 0 70 70">
    <defs>
        <style>.cls-1{fill:#e23038;}.cls-2{fill:none;}</style>
    </defs>
    <g id="Capa_2" data-name="Capa 2">
        <g id="Capa_1-2" data-name="Capa 1">
            <path class="cls-1"
                d="M63,61.07V28.42a1.65,1.65,0,0,0-1.65-1.65H54.67A1.65,1.65,0,0,0,53,28.42V59.79H49.87V35a1.64,1.64,0,0,0-1.64-1.65H41.5A1.64,1.64,0,0,0,39.86,35V59.79H36.72V35a1.64,1.64,0,0,0-1.64-1.65H28.35A1.64,1.64,0,0,0,26.71,35V59.79H23.49V44.87a1.64,1.64,0,0,0-1.65-1.64H15.12a1.64,1.64,0,0,0-1.65,1.64V59.79H10.21V8.57a1.65,1.65,0,1,0-3.29,0V61.43a1.65,1.65,0,0,0,1.65,1.65H61.43A1.64,1.64,0,0,0,63,61.07ZM20.2,59.79H16.76V46.52H20.2Zm13.23,0H30V36.65h3.43Zm13.15,0H43.15V36.65h3.43Zm13.17,0H56.31V30.06h3.44ZM17.23,36a1.66,1.66,0,0,1,.33-2.31l13.17-9.87c.78-.58.62-.21,13.45-.33l9.88-9.87H51.57a1.65,1.65,0,1,1,0-3.29H58A1.65,1.65,0,0,1,59.67,12v6.59a1.65,1.65,0,0,1-3.29,0V15.94L46,26.29a1.64,1.64,0,0,1-1.16.48H32.26L19.53,36.32A1.65,1.65,0,0,1,17.23,36Z"></path>
            <rect class="cls-2" width="70" height="70"></rect>
        </g>
    </g>
</svg>