<svg xmlns="http://www.w3.org/2000/svg" viewBox="0 0 70 70">
    <defs>
        <style>.cls-1{fill:#e23038;}.cls-2{fill:none;}</style>
    </defs>
    <g id="Capa_2" data-name="Capa 2">
        <g id="Capa_1-2" data-name="Capa 1">
            <path class="cls-1"
                d="M62,29.26,49.78,23.15V8.62A1.64,1.64,0,0,0,48.14,7H21.86a1.64,1.64,0,0,0-1.64,1.64V23.15L8,29.26a1.65,1.65,0,0,0-.9,1.47V61.38A1.63,1.63,0,0,0,8.73,63H61.27a1.63,1.63,0,0,0,1.64-1.64V30.73A1.65,1.65,0,0,0,62,29.26ZM20.22,59.74H10.37v-28l9.85-4.93Zm19.71,0H30.07V54.27h9.86Zm6.56,0H43.21V52.62A1.64,1.64,0,0,0,41.57,51H28.43a1.64,1.64,0,0,0-1.64,1.64v7.12H23.51V10.26h23Zm13.14,0H49.78V26.82l9.85,4.93ZM53.06,37.3V35.11a1.65,1.65,0,0,1,3.29,0V37.3a1.65,1.65,0,0,1-3.29,0Zm0,8.76V43.87a1.65,1.65,0,1,1,3.29,0v2.19a1.65,1.65,0,0,1-3.29,0Zm-9.85-11V37.3a1.64,1.64,0,0,1-3.28,0V35.11a1.64,1.64,0,0,1,3.28,0Zm-6.57,0V37.3a1.64,1.64,0,0,1-3.28,0V35.11a1.64,1.64,0,0,1,3.28,0Zm6.57,8.76v2.19a1.64,1.64,0,0,1-3.28,0V43.87a1.64,1.64,0,1,1,3.28,0Zm-6.57,0v2.19a1.64,1.64,0,0,1-3.28,0V43.87a1.64,1.64,0,1,1,3.28,0Zm-9.85,2.19V43.87a1.64,1.64,0,1,1,3.28,0v2.19a1.64,1.64,0,0,1-3.28,0Zm0-8.76V35.11a1.64,1.64,0,0,1,3.28,0V37.3a1.64,1.64,0,0,1-3.28,0Zm-13.14,0V35.11a1.65,1.65,0,0,1,3.29,0V37.3a1.65,1.65,0,0,1-3.29,0Zm0,8.76V43.87a1.65,1.65,0,1,1,3.29,0v2.19a1.65,1.65,0,0,1-3.29,0Zm39.41,8.75V52.62a1.65,1.65,0,0,1,3.29,0v2.19a1.65,1.65,0,1,1-3.29,0Zm-39.41,0V52.62a1.65,1.65,0,0,1,3.29,0v2.19a1.65,1.65,0,1,1-3.29,0ZM35,30a8.21,8.21,0,1,0-8.21-8.21A8.22,8.22,0,0,0,35,30Zm0-13.13a4.93,4.93,0,1,1-4.93,4.92A4.93,4.93,0,0,1,35,16.83Zm-1.64,4.92V19.57a1.64,1.64,0,1,1,3.28,0v2.18a1.64,1.64,0,1,1-3.28,0Z"></path>
            <rect class="cls-2" width="70" height="70"></rect>
        </g>
    </g>
</svg>