<?xml version="1.0" standalone="no"?>
<!DOCTYPE svg PUBLIC "-//W3C//DTD SVG 1.1//EN" "http://www.w3.org/Graphics/SVG/1.1/DTD/svg11.dtd" >
<svg xmlns="http://www.w3.org/2000/svg">
<metadata>Generated by IcoMoon</metadata>
<defs>
<font id="icomoon" horiz-adv-x="1024">
<font-face units-per-em="1024" ascent="960" descent="-64" />
<missing-glyph horiz-adv-x="1024" />
<glyph unicode="&#x20;" horiz-adv-x="512" d="" />
<glyph unicode="&#xe900;" glyph-name="whatsapp" d="M521.556 960c-0.657 0.003-1.434 0.005-2.212 0.005-275.846 0-499.6-223.035-500.765-498.608v-0.111c0-0.203 0-0.444 0-0.684 0-94.995 26.83-183.723 73.326-259.020l-1.221 2.125-90.682-267.783 278.29 88.398c69.903-39.072 153.375-62.079 242.22-62.079 276.526 0 500.995 222.881 503.564 498.8l0.002 0.244c-1.166 275.683-224.92 498.717-500.765 498.717-0.617 0-1.234-0.001-1.851-0.003h0.096zM771.521 271.775c-19.949-30.232-51.513-51.416-88.193-57.237l-0.738-0.096c-23.603-1.218-24.212-18.273-152.812 37.537-89.045 46.453-161.122 114.768-210.798 198l-1.326 2.399c-27.43 37.092-44.81 83.105-47.335 133.036l-0.024 0.588c0.896 41.728 19.6 78.917 48.789 104.395l0.169 0.144c8.911 8.892 21.211 14.39 34.795 14.39 0 0 0 0 0 0v0c10.127 0 16.675 0 24.136 0s18.73 1.599 28.476-24.288 33.045-89.464 36.014-96.012c1.79-3.221 2.844-7.065 2.844-11.154s-1.054-7.933-2.904-11.274l0.061 0.119c-3.764-7.949-8.318-14.792-13.709-20.878l0.080 0.092c-6.7-7.233-14.086-16.065-20.101-21.624s-13.629-12.715-6.624-25.735c19.063-34.684 41.746-64.477 68.17-90.48l0.051-0.050c28.569-27.195 61.911-49.71 98.584-66.113l2.225-0.889c12.639-6.853 20.101-6.091 27.943 2.132s33.425 36.014 42.486 48.349 17.512 9.974 29.161 5.33 73.475-38.070 86.114-44.694 21.014-10.355 24.060-15.761c0.581-4.161 0.913-8.968 0.913-13.853 0-16.881-3.964-32.836-11.011-46.986l0.276 0.613z" />
<glyph unicode="&#xe901;" glyph-name="tickets" d="M512 854.069c-0.006 0-0.012 0-0.019 0-224.266 0-406.069-181.803-406.069-406.069 0-112.138 45.455-213.659 118.944-287.143v0c73.486-73.486 175.007-118.939 287.144-118.939 224.273 0 406.083 181.809 406.083 406.083 0 112.137-45.452 213.657-118.939 287.144v0c-73.080 73.463-174.244 118.927-286.027 118.927-0.393 0-0.785-0.001-1.177-0.002h0.061zM512 960c282.77 0 512-229.23 512-512s-229.23-512-512-512c-282.77 0-512 229.23-512 512v0c0 282.77 229.23 512 512 512v0zM350.173 545.139h323.69v-194.207h-323.69zM754.759 448.035c0-26.814 21.737-48.552 48.552-48.552v0-97.103c0-26.814-21.737-48.552-48.552-48.552v0h-485.517c-26.814 0-48.552 21.737-48.552 48.552v0 97.103c26.814 0 48.552 21.737 48.552 48.552s-21.737 48.552-48.552 48.552v0 97.103c0 26.814 21.737 48.552 48.552 48.552v0h485.517c26.814 0 48.552-21.737 48.552-48.552v0-97.103c-26.814 0-48.552-21.737-48.552-48.552v0zM706.207 553.225c0 13.397-10.861 24.258-24.258 24.258v0h-339.862c0 0 0 0 0 0-13.397 0-24.258-10.861-24.258-24.258 0-0.012 0-0.025 0-0.037v0.002-210.379c0-0.010 0-0.023 0-0.035 0-13.397 10.861-24.258 24.258-24.258 0.012 0 0.025 0 0.037 0h339.86c0.010 0 0.023 0 0.035 0 13.397 0 24.258 10.861 24.258 24.258 0 0 0 0 0 0v0z" />
<glyph unicode="&#xe902;" glyph-name="close" d="M56.877 106.616l796.407 796.407c31.413 31.413 82.342 31.413 113.755 0s31.413-82.342 0-113.755l-796.407-796.407c-31.413-31.413-82.342-31.413-113.755 0s-31.413 82.342 0 113.755zM170.675 903.123l796.407-796.407c31.413-31.413 31.413-82.342 0-113.755s-82.342-31.413-113.755 0l-796.407 796.407c-31.413 31.413-31.413 82.342 0 113.755s82.342 31.413 113.755 0z" />
<glyph unicode="&#xe903;" glyph-name="hora" d="M512 854.069c-0.006 0-0.012 0-0.019 0-224.266 0-406.069-181.803-406.069-406.069 0-112.138 45.455-213.659 118.944-287.143v0c73.486-73.486 175.007-118.939 287.144-118.939 224.273 0 406.083 181.809 406.083 406.083 0 112.137-45.452 213.657-118.939 287.144v0c-73.080 73.463-174.244 118.927-286.027 118.927-0.393 0-0.785-0.001-1.177-0.002h0.061zM512 960c282.77 0 512-229.23 512-512s-229.23-512-512-512c-282.77 0-512 229.23-512 512v0c0 282.77 229.23 512 512 512v0zM516.767 218.447c-133.662 0-242.017 108.355-242.017 242.017s108.355 242.017 242.017 242.017c133.662 0 242.017-108.355 242.017-242.017v0c-0.141-133.606-108.411-241.876-242.003-242.017h-0.014zM516.767 631.826c-94.66 0-171.396-76.737-171.396-171.396s76.737-171.396 171.396-171.396c94.66 0 171.396 76.737 171.396 171.396v0c-0.1 94.619-76.777 171.296-171.387 171.396h-0.010zM614.894 328.651c-5.743 0.012-11.161 1.394-15.948 3.836l0.2-0.093-124.010 62.005c-11.67 5.925-19.527 17.838-19.527 31.586 0 0.006 0 0.012 0 0.017v-0.001 186.015c0 19.501 15.809 35.31 35.31 35.31s35.31-15.809 35.31-35.31v0-164.193l104.483-52.259c11.688-5.919 19.56-17.842 19.56-31.603 0-19.501-15.809-35.31-35.31-35.31-0.024 0-0.048 0-0.072 0h0.004z" />
<glyph unicode="&#xe904;" glyph-name="linkedin" d="M950.864 960h-877.954c-40.333-0.308-72.91-33.076-72.91-73.452 0-0.128 0-0.257 0.001-0.385v0.020-876.366c-0.001-0.108-0.001-0.237-0.001-0.365 0-40.376 32.577-73.144 72.881-73.452h877.983c40.453 0.283 73.137 33.141 73.137 73.634 0 0.064 0 0.129 0 0.193v-0.010 876.366c0 0.054 0 0.119 0 0.183 0 40.492-32.684 73.351-73.11 73.634h-0.027zM309.468 82.091h-151.763v488.861h151.989v-488.861zM233.61 637.692c-48.611 0-88.018 39.407-88.018 88.018s39.407 88.018 88.018 88.018c48.611 0 88.018-39.407 88.018-88.018v0c0-48.611-39.407-88.018-88.018-88.018v0zM878.408 82.091h-151.763v237.92c0 56.667-1.134 129.622-78.853 129.622-79.080 0-91.194-61.703-91.194-125.493v-242.049h-151.808v488.861h145.592v-66.921h2.042c28.275 47.576 79.406 78.962 137.867 78.962 2.079 0 4.148-0.040 6.207-0.118l-0.297 0.009c153.623 0 182.16-101.266 182.16-232.929z" />
<glyph unicode="&#xe905;" glyph-name="lugar" d="M512 854.069c-0.006 0-0.012 0-0.019 0-224.266 0-406.069-181.803-406.069-406.069 0-112.138 45.455-213.659 118.944-287.143v0c73.486-73.486 175.007-118.939 287.144-118.939 224.273 0 406.083 181.809 406.083 406.083 0 112.137-45.452 213.657-118.939 287.144v0c-73.080 73.463-174.244 118.927-286.027 118.927-0.393 0-0.785-0.001-1.177-0.002h0.061zM512 960c282.77 0 512-229.23 512-512s-229.23-512-512-512c-282.77 0-512 229.23-512 512v0c0 282.77 229.23 512 512 512v0zM516.732 668.019c-0.042 0-0.092 0-0.141 0-89.823 0-162.639-72.816-162.639-162.639 0-0.050 0-0.099 0-0.149v0.008c0-122.068 162.781-302.292 162.781-302.292s162.781 180.083 162.781 302.292c0 0.042 0 0.092 0 0.141 0 89.823-72.816 162.639-162.639 162.639-0.050 0-0.099 0-0.149 0h0.008zM516.732 447.117c-32.099 0-58.121 26.022-58.121 58.121s26.022 58.121 58.121 58.121c32.099 0 58.121-26.022 58.121-58.121v0c-0.020-32.091-26.030-58.101-58.119-58.121h-0.002z" />
<glyph unicode="&#xe906;" glyph-name="publico" d="M512 854.069c-0.006 0-0.012 0-0.019 0-224.266 0-406.069-181.803-406.069-406.069 0-112.138 45.455-213.659 118.944-287.143v0c73.486-73.486 175.007-118.939 287.144-118.939 224.273 0 406.083 181.809 406.083 406.083 0 112.137-45.452 213.657-118.939 287.144v0c-73.080 73.463-174.244 118.927-286.027 118.927-0.393 0-0.785-0.001-1.177-0.002h0.061zM512 960c282.77 0 512-229.23 512-512s-229.23-512-512-512c-282.77 0-512 229.23-512 512v0c0 282.77 229.23 512 512 512v0zM582.621 448.035c58.504 0 105.931 47.427 105.931 105.931s-47.427 105.931-105.931 105.931c-58.504 0-105.931-47.427-105.931-105.931v0c0-58.504 47.427-105.931 105.931-105.931v0zM344.276 501.001v79.448h-52.966v-79.448h-79.448v-52.966h79.448v-79.448h52.966v79.448h79.448v52.966zM582.621 395.070c-70.621 0-211.862-35.487-211.862-105.931v-52.966h423.724v52.966c0 70.444-141.241 105.931-211.862 105.931z" />
<glyph unicode="&#xe907;" glyph-name="search" d="M1024 26.432l-212.527 212.527c56.161 73.221 89.997 166.134 89.997 266.95 0 1.252-0.005 2.502-0.016 3.751l0.001-0.191c0.004 0.737 0.007 1.609 0.007 2.482 0 247.455-200.602 448.056-448.056 448.056-0.912 0-1.823-0.003-2.734-0.008l0.14 0.001c-0.821 0.005-1.792 0.009-2.764 0.009-247.455 0-448.056-200.602-448.056-448.056 0-0.972 0.003-1.943 0.009-2.914l-0.001 0.149c-0.005-0.821-0.009-1.792-0.009-2.764 0-247.455 200.602-448.056 448.056-448.056 0.972 0 1.943 0.003 2.914 0.009l-0.149-0.001c1.058-0.009 2.308-0.014 3.56-0.014 100.816 0 193.729 33.836 268.002 90.772l-1.053-0.775 212.246-212.359zM128.787 509.188c-0.010 0.941-0.016 2.052-0.016 3.165 0 176.11 142.765 318.875 318.875 318.875 1.113 0 2.224-0.006 3.334-0.017l-0.169 0.001c0.941 0.010 2.052 0.016 3.165 0.016 176.11 0 318.875-142.765 318.875-318.875 0-1.113-0.006-2.224-0.017-3.334l0.001 0.169c0.010-0.941 0.016-2.052 0.016-3.165 0-176.11-142.765-318.875-318.875-318.875-1.113 0-2.224 0.006-3.334 0.017l0.169-0.001c-0.941-0.010-2.052-0.016-3.165-0.016-176.11 0-318.875 142.765-318.875 318.875 0 1.113 0.006 2.224 0.017 3.334l-0.001-0.169z" />
<glyph unicode="&#xe908;" glyph-name="youtube" horiz-adv-x="1152" d="M1099.31 711.834c-12.562 47.3-49.574 84.552-96.568 97.194-85.18 22.972-426.742 22.972-426.742 22.972s-341.56 0-426.742-22.972c-46.994-12.644-84.006-49.894-96.568-97.194-22.824-85.734-22.824-264.61-22.824-264.61s0-178.876 22.824-264.61c12.562-47.3 49.574-83 96.568-95.642 85.182-22.972 426.742-22.972 426.742-22.972s341.56 0 426.742 22.972c46.994 12.642 84.006 48.342 96.568 95.642 22.824 85.734 22.824 264.61 22.824 264.61s0 178.876-22.824 264.61zM464.29 284.818v324.812l285.478-162.41-285.478-162.402z" />
<glyph unicode="&#xe909;" glyph-name="calendar" d="M512 866.909c-0.001 0-0.002 0-0.004 0-231.357 0-418.909-187.552-418.909-418.909 0-115.679 46.889-220.407 122.697-296.215v0c75.808-75.808 180.536-122.696 296.215-122.696 231.359 0 418.912 187.553 418.912 418.912 0 115.679-46.888 220.407-122.696 296.215v0c-75.392 75.791-179.758 122.695-295.080 122.695-0.399 0-0.798-0.001-1.197-0.002h0.062zM512 960c282.77 0 512-229.23 512-512s-229.23-512-512-512c-282.77 0-512 229.23-512 512v0c0 282.77 229.23 512 512 512v0zM438.862 476.61h-50.859v-50.89h50.89zM540.641 476.61h-50.89v-50.89h50.921zM642.42 476.61h-50.89v-50.89h50.89zM693.31 654.693h-25.414v50.89h-50.89v-50.89h-203.559v50.89h-50.89v-50.89h-25.445c0 0 0 0-0.001 0-27.969 0-50.641-22.673-50.641-50.641 0-0.087 0-0.175 0.001-0.262v0.013l-0.248-356.166c0-0.028 0-0.060 0-0.093 0-28.088 22.77-50.859 50.859-50.859 0.011 0 0.022 0 0.033 0h356.164c28.070 0.088 50.802 22.82 50.89 50.881v356.236c-0.088 28.070-22.82 50.802-50.881 50.89h-0.008zM693.31 247.637h-356.197v279.862h356.166z" />
<glyph unicode="&#xe90a;" glyph-name="arrow-next-mid" horiz-adv-x="1264" d="M777.722-38.983c-19.443 0-32.405 6.481-45.367 19.443-25.924 25.924-25.924 64.81 0 90.734l375.899 375.899-375.899 375.899c-25.924 25.924-25.924 64.81 0 90.734s64.81 25.924 90.734 0l421.266-421.266c25.924-25.924 25.924-64.81 0-90.734l-421.266-421.266c-12.962-12.962-25.924-19.443-45.367-19.443zM1179.544 369.321h-1114.734c-38.886 0-64.81 25.924-64.81 64.81s25.924 64.81 64.81 64.81h1121.215c38.886 0 64.81-25.924 64.81-64.81s-32.405-64.81-71.291-64.81z" />
<glyph unicode="&#xe90b;" glyph-name="arrow-next-small" horiz-adv-x="586" d="M409.004 448.201l-387.494 387.172c-13.368 13.16-21.65 31.453-21.65 51.679s8.283 38.519 21.641 51.67l0.009 0.009c13.319 13.153 31.631 21.277 51.84 21.277s38.521-8.124 51.848-21.284l439.045-438.723c13.163-13.213 21.301-31.439 21.301-51.567 0-19.061-7.299-36.418-19.254-49.428l0.048 0.053-441.147-441.711c-13.254-13.295-31.587-21.52-51.84-21.52-40.427 0-73.2 32.773-73.2 73.2 0 20.173 8.161 38.441 21.361 51.681l-0.002-0.002z" />
<glyph unicode="&#xe90c;" glyph-name="twitter" d="M918.74 656.568c0.65-9.096 0.65-18.194 0.65-27.29 0-277.44-211.166-597.116-597.116-597.116-118.904 0-229.36 34.438-322.274 94.212 16.894-1.948 33.136-2.598 50.68-2.598 98.11 0 188.426 33.136 260.548 89.664-92.264 1.95-169.584 62.376-196.224 145.544 12.996-1.948 25.99-3.248 39.636-3.248 18.842 0 37.686 2.6 55.228 7.146-96.162 19.494-168.286 103.96-168.286 205.97v2.598c27.938-15.594 60.428-25.34 94.862-26.638-56.528 37.686-93.562 102.010-93.562 174.782 0 38.984 10.394 74.72 28.588 105.908 103.31-127.35 258.6-210.516 432.73-219.614-3.248 15.594-5.198 31.836-5.198 48.080 0 115.656 93.564 209.868 209.868 209.868 60.426 0 115.004-25.34 153.34-66.274 47.43 9.096 92.912 26.64 133.198 50.68-15.596-48.732-48.732-89.666-92.264-115.654 42.234 4.546 83.168 16.244 120.852 32.486-28.584-41.582-64.322-78.616-105.256-108.506z" />
<glyph unicode="&#xe90d;" glyph-name="facebook" horiz-adv-x="640" d="M558.28 384l28.44 185.32h-177.82v120.26c0 50.7 24.84 100.12 104.48 100.12h80.84v157.78s-73.36 12.52-143.5 12.52c-146.44 0-242.16-88.76-242.16-249.44v-141.24h-162.78v-185.32h162.78v-448h200.34v448z" />
<glyph unicode="&#xe90e;" glyph-name="instagram" horiz-adv-x="896" d="M448.2 678c-127.2 0-229.8-102.6-229.8-229.8s102.6-229.8 229.8-229.8 229.8 102.6 229.8 229.8-102.6 229.8-229.8 229.8zM448.2 298.8c-82.2 0-149.4 67-149.4 149.4s67 149.4 149.4 149.4 149.4-67 149.4-149.4-67.2-149.4-149.4-149.4zM741 687.4c0-29.8-24-53.6-53.6-53.6-29.8 0-53.6 24-53.6 53.6s24 53.6 53.6 53.6 53.6-24 53.6-53.6zM893.2 633c-3.4 71.8-19.8 135.4-72.4 187.8-52.4 52.4-116 68.8-187.8 72.4-74 4.2-295.8 4.2-369.8 0-71.6-3.4-135.2-19.8-187.8-72.2s-68.8-116-72.4-187.8c-4.2-74-4.2-295.8 0-369.8 3.4-71.8 19.8-135.4 72.4-187.8s116-68.8 187.8-72.4c74-4.2 295.8-4.2 369.8 0 71.8 3.4 135.4 19.8 187.8 72.4 52.4 52.4 68.8 116 72.4 187.8 4.2 74 4.2 295.6 0 369.6zM797.6 184c-15.6-39.2-45.8-69.4-85.2-85.2-59-23.4-199-18-264.2-18s-205.4-5.2-264.2 18c-39.2 15.6-69.4 45.8-85.2 85.2-23.4 59-18 199-18 264.2s-5.2 205.4 18 264.2c15.6 39.2 45.8 69.4 85.2 85.2 59 23.4 199 18 264.2 18s205.4 5.2 264.2-18c39.2-15.6 69.4-45.8 85.2-85.2 23.4-59 18-199 18-264.2s5.4-205.4-18-264.2z" />
<glyph unicode="&#xe90f;" glyph-name="icono-de-correo" horiz-adv-x="1429" d="M0 960v-1024.238h1429.17v1024.238zM1178.191 847.493l-464.083-320.293-479.328 320.293zM112.507 48.507v745.312l602.554-402.629 601.522 415.015v-757.698z" />
<glyph unicode="&#xe910;" glyph-name="icono-compartir" horiz-adv-x="896" d="M703.99 320.021c-0.123 0-0.269 0-0.415 0-45.228 0-86.788-15.707-119.521-41.965l0.375 0.291-204.992 127.979c2.892 12.524 4.55 26.905 4.55 41.673s-1.658 29.15-4.797 42.968l0.247-1.294 204.95 128.104c32.401-25.905 73.973-41.57 119.204-41.57 105.872 0 191.698 85.826 191.698 191.698s-85.826 191.698-191.698 191.698c-105.872 0-191.698-85.826-191.698-191.698 0-14.807 1.679-29.223 4.857-43.066l-0.249 1.289-204.908-127.896c-32.482 26.032-74.186 41.778-119.567 41.778-106.033 0-191.99-85.957-191.99-191.99s85.957-191.99 191.99-191.99c45.381 0 87.085 15.745 119.947 42.071l-0.379-0.294 204.95-128.104c-2.915-12.536-4.586-26.93-4.586-41.715 0-106.056 85.975-192.031 192.031-192.031s192.031 85.975 192.031 192.031c0 106.026-85.927 191.983-191.942 192.031h-0.005z" />
<glyph unicode="&#xe911;" glyph-name="arrow-slider-prev" horiz-adv-x="683" d="M535.642-63.735c-8.159 0-14.279 2.040-20.398 8.159l-505.88 481.402c-12.239 12.239-12.239 30.598-2.040 42.837 0 0 0 0 2.040 2.040l505.88 481.402c12.239 12.239 30.598 10.199 42.837-2.040 10.199-12.239 10.199-30.598 0-42.837l-483.442-461.004 483.442-461.004c12.239-12.239 12.239-30.598 0-42.837-6.12-2.040-14.279-6.12-22.438-6.12v0z" />
<glyph unicode="&#xe912;" glyph-name="arrow-slider-next" horiz-adv-x="683" d="M29.761-63.735c-8.159 0-16.319 4.080-22.438 10.199-12.239 12.239-10.199 30.598 0 42.837l483.442 461.004-483.442 461.004c-12.239 12.239-12.239 30.598 0 42.837s30.598 12.239 42.837 2.040l505.88-481.402c0 0 0 0 2.040-2.040 12.239-12.239 10.199-30.598-2.040-42.837l-505.88-481.402c-4.080-10.199-12.239-12.239-20.398-12.239v0z" />
<glyph unicode="&#xe913;" glyph-name="quote-end" horiz-adv-x="1762" d="M807.323 915.019c-48.997-189.996-99.678-345.587-158.455-497.142l10.314 30.23q-103.23-281.027-211.568-512.035h-447.614q134.802 545.736 206.46 1024h572.271zM1761.865 915.019c-49.026-190-99.73-345.59-158.531-497.141l10.319 30.229q-103.23-281.027-211.568-512.035h-447.614q134.802 545.736 206.46 1024h572.271z" />
<glyph unicode="&#xe914;" glyph-name="quote-start" horiz-adv-x="1762" d="M954.541-19.019c48.997 189.996 99.678 345.587 158.455 497.142l-10.314-30.23q103.23 281.027 211.568 512.035h447.614q-134.802-545.736-206.46-1024h-572.271zM0-19.019c49.026 190 99.73 345.59 158.531 497.141l-10.319-30.229q103.23 281.027 211.568 512.035h447.614q-134.802-545.736-206.46-1024h-572.271z" />
<glyph unicode="&#xe915;" glyph-name="menu" horiz-adv-x="896" d="M32 696h832c17.674 0 32 14.326 32 32v80c0 17.674-14.326 32-32 32h-832c-17.674 0-32-14.326-32-32v-80c0-17.674 14.326-32 32-32zM32 376h832c17.674 0 32 14.326 32 32v80c0 17.674-14.326 32-32 32h-832c-17.674 0-32-14.326-32-32v-80c0-17.674 14.326-32 32-32zM32 56h832c17.674 0 32 14.326 32 32v80c0 17.674-14.326 32-32 32h-832c-17.674 0-32-14.326-32-32v-80c0-17.674 14.326-32 32-32z" />
<glyph unicode="&#xe916;" glyph-name="world" horiz-adv-x="1027" d="M545.792 916.275c-263.622-1.237-476.85-215.228-476.85-479.022 0-264.559 214.468-479.027 479.027-479.027s479.027 214.468 479.027 479.027c0 132.285-53.621 252.046-140.314 338.734v0c-87.027 86.692-207.075 140.29-339.641 140.29-0.439 0-0.878-0.001-1.317-0.002h0.068zM897.946 610.099h-107.213c-13.945 66.013-36.638 124.539-67.207 177.979l1.569-2.978c74.669-39.692 134.018-99.733 171.789-172.743l1.062-2.258zM939.418 434.995c-0.298-31.176-4.276-61.282-11.519-90.090l0.562 2.641h-124.621c2.15 28.467 4.403 56.832 4.403 87.45s-2.15 59.085-4.403 87.45h124.723c6.681-26.168 10.659-56.273 10.955-87.259l0.001-0.19zM151.962 434.995c0.298 31.176 4.276 61.282 11.519 90.090l-0.562-2.641h124.723c-2.15-28.467-4.403-56.832-4.403-87.45s2.15-59.085 4.403-87.45h-124.723c-6.681 26.168-10.659 56.273-10.955 87.259l-0.001 0.19zM370.688 434.995c0 30.72 2.15 59.085 4.403 87.45h126.874v-174.899h-126.874c-2.15 28.467-4.301 56.73-4.301 87.45zM589.517 813.875c26.901-22.059 48.927-48.958 64.967-79.493l0.672-1.403c19.612-35.408 35.444-76.421 45.362-119.69l0.615-3.19h-111.616zM501.965 813.875v-203.776h-111.514c10.533 46.459 26.366 87.472 47.216 125.333l-1.238-2.453c16.683 31.933 38.675 58.83 65.091 80.541l0.445 0.355zM501.965 260.915v-203.469c-26.901 22.059-48.927 48.958-64.967 79.493l-0.672 1.403c-19.612 35.408-35.444 76.421-45.362 119.69l-0.615 3.19zM589.414 57.446v202.65h111.616c-10.533-46.459-26.366-87.472-47.216-125.333l1.238 2.453c-16.711-31.939-38.737-58.837-65.189-80.539l-0.449-0.357zM589.414 348.365v174.182h126.976c2.15-28.467 4.403-56.832 4.403-87.45s-2.15-59.085-4.403-87.45zM366.387 785.101c-29.001-50.463-51.693-108.989-64.927-171.018l-0.712-3.984h-107.213c38.832 75.268 98.181 135.309 170.669 173.94l2.182 1.061zM193.536 260.096h107.213c13.945-66.013 36.638-124.539 67.207-177.979l-1.569 2.978c-74.669 39.692-134.018 99.733-171.789 172.743l-1.062 2.258zM725.094 85.094c29.001 50.463 51.693 108.989 64.927 171.018l0.712 3.984h107.213c-38.832-75.268-98.181-135.309-170.669-173.94l-2.182-1.061z" />
<glyph unicode="&#xe917;" glyph-name="tiktok" horiz-adv-x="899" d="M472.804 960h165.834c2.307-9.156 1.278-18.702 2.768-28 7.839-66.486 39.923-124.29 87.023-165.285l0.312-0.266c45.258-39.463 104.839-63.523 170.040-63.523 0.106 0 0.212 0 0.317 0h-0.016c0-55.432 0.177-110.864 0-166.296-97.946 0.079-188.138 33.212-260.040 88.845l0.979-0.729q0.426-179.675 0.816-359.349c0.137-3.485 0.215-7.575 0.215-11.685 0-58.63-15.895-113.547-43.61-160.678l0.81 1.489c-35.408-59.562-87.802-105.814-150.471-132.707l-2.091-0.798c-36.993-15.824-80.039-25.023-125.232-25.023-41.371 0-80.941 7.709-117.353 21.769l2.227-0.756c-63.438 24.661-115.558 66.808-151.874 120.517l-0.724 1.136c-32.965 48.925-52.618 109.193-52.618 174.051 0 53.407 13.326 103.701 36.834 147.739l-0.824-1.69c34.388 63.857 87.805 113.703 152.584 142.732l2.036 0.816c38.268 17.070 82.926 27.011 129.905 27.011 16.936 0 33.571-1.292 49.811-3.783l-1.816 0.229q0-84.78 0-169.596c-14.218 4.864-30.599 7.673-47.636 7.673-65.517 0-121.334-41.531-142.561-99.703l-0.336-1.054c-5.451-14.956-8.603-32.222-8.603-50.224 0-21.438 4.471-41.832 12.53-60.3l-0.378 0.972c15.412-35.106 42.561-62.693 76.38-78.284l0.948-0.392c18.26-8.424 39.625-13.336 62.137-13.336 81.656 0 148.216 64.632 151.314 145.53l0.009 0.282c0.603 237.555-0.142 475.11 0.355 712.666z" />
</font>
</defs>
</svg>
